<?xml version="1.0" encoding="UTF-8" standalone="no"?>
<svg
   class="svglite"
   width="1251.4822pt"
   height="493.89011pt"
   viewBox="0 0 1251.4821 493.89009"
   version="1.1"
   id="svg206"
   sodipodi:docname="Figure2.Mapping-graph.svg"
   inkscape:version="1.3.2 (091e20e, 2023-11-25, custom)"
   inkscape:export-filename="mapping-percentagem.pdf"
   inkscape:export-xdpi="300"
   inkscape:export-ydpi="300"
   xmlns:inkscape="http://www.inkscape.org/namespaces/inkscape"
   xmlns:sodipodi="http://sodipodi.sourceforge.net/DTD/sodipodi-0.dtd"
   xmlns="http://www.w3.org/2000/svg"
   xmlns:svg="http://www.w3.org/2000/svg">
  <sodipodi:namedview
     id="namedview206"
     pagecolor="#ffffff"
     bordercolor="#999999"
     borderopacity="1"
     inkscape:showpageshadow="0"
     inkscape:pageopacity="0"
     inkscape:pagecheckerboard="0"
     inkscape:deskcolor="#d1d1d1"
     inkscape:document-units="pt"
     inkscape:zoom="0.56692775"
     inkscape:cx="827.2659"
     inkscape:cy="493.00815"
     inkscape:window-width="1920"
     inkscape:window-height="1027"
     inkscape:window-x="1358"
     inkscape:window-y="-8"
     inkscape:window-maximized="1"
     inkscape:current-layer="svg206" />
  <defs
     id="defs1">
    <style
       type="text/css"
       id="style1"><![CDATA[
    .svglite line, .svglite polyline, .svglite polygon, .svglite path, .svglite rect, .svglite circle {
      fill: none;
      stroke: #000000;
      stroke-linecap: round;
      stroke-linejoin: round;
      stroke-miterlimit: 10.00;
    }
    .svglite text {
      white-space: pre;
    }
  ]]></style>
    <clipPath
       clipPathUnits="userSpaceOnUse"
       id="clipPath220">
      <g
         id="g221">
        <rect
           x="0"
           y="0"
           width="1386.42"
           height="462.14001"
           id="rect220" />
      </g>
    </clipPath>
    <clipPath
       clipPathUnits="userSpaceOnUse"
       id="clipPath221">
      <g
         id="g222">
        <rect
           x="0"
           y="0"
           width="1386.42"
           height="462.14001"
           id="rect221" />
      </g>
    </clipPath>
    <clipPath
       clipPathUnits="userSpaceOnUse"
       id="clipPath222">
      <g
         id="g223">
        <rect
           x="0"
           y="0"
           width="1386.42"
           height="462.14001"
           id="rect222" />
      </g>
    </clipPath>
    <clipPath
       clipPathUnits="userSpaceOnUse"
       id="clipPath224">
      <g
         id="g225">
        <rect
           x="681.13"
           y="28.5"
           width="319.07001"
           height="396.35999"
           id="rect224" />
      </g>
    </clipPath>
    <clipPath
       clipPathUnits="userSpaceOnUse"
       id="clipPath225">
      <g
         id="g226">
        <rect
           x="681.13"
           y="28.5"
           width="319.07001"
           height="396.35999"
           id="rect225" />
      </g>
    </clipPath>
    <clipPath
       clipPathUnits="userSpaceOnUse"
       id="clipPath226">
      <g
         id="g227">
        <rect
           x="681.13"
           y="28.5"
           width="319.07001"
           height="396.35999"
           id="rect226" />
      </g>
    </clipPath>
    <clipPath
       clipPathUnits="userSpaceOnUse"
       id="clipPath227">
      <g
         id="g228">
        <rect
           x="681.13"
           y="28.5"
           width="319.07001"
           height="396.35999"
           id="rect227" />
      </g>
    </clipPath>
    <clipPath
       clipPathUnits="userSpaceOnUse"
       id="clipPath228">
      <g
         id="g229">
        <rect
           x="681.13"
           y="28.5"
           width="319.07001"
           height="396.35999"
           id="rect228" />
      </g>
    </clipPath>
    <clipPath
       clipPathUnits="userSpaceOnUse"
       id="clipPath229">
      <g
         id="g230">
        <rect
           x="681.13"
           y="28.5"
           width="319.07001"
           height="396.35999"
           id="rect229" />
      </g>
    </clipPath>
    <clipPath
       clipPathUnits="userSpaceOnUse"
       id="clipPath230">
      <g
         id="g231">
        <rect
           x="681.13"
           y="28.5"
           width="319.07001"
           height="396.35999"
           id="rect230" />
      </g>
    </clipPath>
    <clipPath
       clipPathUnits="userSpaceOnUse"
       id="clipPath231">
      <g
         id="g232">
        <rect
           x="681.13"
           y="28.5"
           width="319.07001"
           height="396.35999"
           id="rect231" />
      </g>
    </clipPath>
    <clipPath
       clipPathUnits="userSpaceOnUse"
       id="clipPath232">
      <g
         id="g233">
        <rect
           x="681.13"
           y="28.5"
           width="319.07001"
           height="396.35999"
           id="rect232" />
      </g>
    </clipPath>
    <clipPath
       clipPathUnits="userSpaceOnUse"
       id="clipPath233">
      <g
         id="g234">
        <rect
           x="681.13"
           y="28.5"
           width="319.07001"
           height="396.35999"
           id="rect233" />
      </g>
    </clipPath>
    <clipPath
       clipPathUnits="userSpaceOnUse"
       id="clipPath234">
      <g
         id="g235">
        <rect
           x="681.13"
           y="28.5"
           width="319.07001"
           height="396.35999"
           id="rect234" />
      </g>
    </clipPath>
    <clipPath
       clipPathUnits="userSpaceOnUse"
       id="clipPath236">
      <g
         id="g237">
        <rect
           x="53.060001"
           y="28.5"
           width="621.09003"
           height="396.35999"
           id="rect236" />
      </g>
    </clipPath>
    <clipPath
       clipPathUnits="userSpaceOnUse"
       id="clipPath237">
      <g
         id="g238">
        <rect
           x="53.060001"
           y="28.5"
           width="621.09003"
           height="396.35999"
           id="rect237" />
      </g>
    </clipPath>
    <clipPath
       clipPathUnits="userSpaceOnUse"
       id="clipPath238">
      <g
         id="g239">
        <rect
           x="53.060001"
           y="28.5"
           width="621.09003"
           height="396.35999"
           id="rect238" />
      </g>
    </clipPath>
    <clipPath
       clipPathUnits="userSpaceOnUse"
       id="clipPath239">
      <g
         id="g240">
        <rect
           x="53.060001"
           y="28.5"
           width="621.09003"
           height="396.35999"
           id="rect239" />
      </g>
    </clipPath>
    <clipPath
       clipPathUnits="userSpaceOnUse"
       id="clipPath240">
      <g
         id="g241">
        <rect
           x="53.060001"
           y="28.5"
           width="621.09003"
           height="396.35999"
           id="rect240" />
      </g>
    </clipPath>
    <clipPath
       clipPathUnits="userSpaceOnUse"
       id="clipPath241">
      <g
         id="g242">
        <rect
           x="53.060001"
           y="28.5"
           width="621.09003"
           height="396.35999"
           id="rect241" />
      </g>
    </clipPath>
    <clipPath
       clipPathUnits="userSpaceOnUse"
       id="clipPath242">
      <g
         id="g243">
        <rect
           x="53.060001"
           y="28.5"
           width="621.09003"
           height="396.35999"
           id="rect242" />
      </g>
    </clipPath>
    <clipPath
       clipPathUnits="userSpaceOnUse"
       id="clipPath243">
      <g
         id="g244">
        <rect
           x="53.060001"
           y="28.5"
           width="621.09003"
           height="396.35999"
           id="rect243" />
      </g>
    </clipPath>
    <clipPath
       clipPathUnits="userSpaceOnUse"
       id="clipPath244">
      <g
         id="g245">
        <rect
           x="53.060001"
           y="28.5"
           width="621.09003"
           height="396.35999"
           id="rect244" />
      </g>
    </clipPath>
    <clipPath
       clipPathUnits="userSpaceOnUse"
       id="clipPath245">
      <g
         id="g246">
        <rect
           x="53.060001"
           y="28.5"
           width="621.09003"
           height="396.35999"
           id="rect245" />
      </g>
    </clipPath>
    <clipPath
       clipPathUnits="userSpaceOnUse"
       id="clipPath246">
      <g
         id="g247">
        <rect
           x="53.060001"
           y="28.5"
           width="621.09003"
           height="396.35999"
           id="rect246" />
      </g>
    </clipPath>
    <clipPath
       clipPathUnits="userSpaceOnUse"
       id="clipPath248">
      <g
         id="g249">
        <rect
           x="1007.17"
           y="28.5"
           width="226.13"
           height="396.35999"
           id="rect248" />
      </g>
    </clipPath>
    <clipPath
       clipPathUnits="userSpaceOnUse"
       id="clipPath249">
      <g
         id="g250">
        <rect
           x="1007.17"
           y="28.5"
           width="226.13"
           height="396.35999"
           id="rect249" />
      </g>
    </clipPath>
    <clipPath
       clipPathUnits="userSpaceOnUse"
       id="clipPath250">
      <g
         id="g251">
        <rect
           x="1007.17"
           y="28.5"
           width="226.13"
           height="396.35999"
           id="rect250" />
      </g>
    </clipPath>
    <clipPath
       clipPathUnits="userSpaceOnUse"
       id="clipPath251">
      <g
         id="g252">
        <rect
           x="1007.17"
           y="28.5"
           width="226.13"
           height="396.35999"
           id="rect251" />
      </g>
    </clipPath>
    <clipPath
       clipPathUnits="userSpaceOnUse"
       id="clipPath252">
      <g
         id="g253">
        <rect
           x="1007.17"
           y="28.5"
           width="226.13"
           height="396.35999"
           id="rect252" />
      </g>
    </clipPath>
    <clipPath
       clipPathUnits="userSpaceOnUse"
       id="clipPath253">
      <g
         id="g254">
        <rect
           x="1007.17"
           y="28.5"
           width="226.13"
           height="396.35999"
           id="rect253" />
      </g>
    </clipPath>
    <clipPath
       clipPathUnits="userSpaceOnUse"
       id="clipPath254">
      <g
         id="g255">
        <rect
           x="1007.17"
           y="28.5"
           width="226.13"
           height="396.35999"
           id="rect254" />
      </g>
    </clipPath>
    <clipPath
       clipPathUnits="userSpaceOnUse"
       id="clipPath255">
      <g
         id="g256">
        <rect
           x="1007.17"
           y="28.5"
           width="226.13"
           height="396.35999"
           id="rect255" />
      </g>
    </clipPath>
    <clipPath
       clipPathUnits="userSpaceOnUse"
       id="clipPath256">
      <g
         id="g257">
        <rect
           x="1007.17"
           y="28.5"
           width="226.13"
           height="396.35999"
           id="rect256" />
      </g>
    </clipPath>
    <clipPath
       clipPathUnits="userSpaceOnUse"
       id="clipPath257">
      <g
         id="g258">
        <rect
           x="1007.17"
           y="28.5"
           width="226.13"
           height="396.35999"
           id="rect257" />
      </g>
    </clipPath>
    <clipPath
       clipPathUnits="userSpaceOnUse"
       id="clipPath258">
      <g
         id="g259">
        <rect
           x="1007.17"
           y="28.5"
           width="226.13"
           height="396.35999"
           id="rect258" />
      </g>
    </clipPath>
    <clipPath
       clipPathUnits="userSpaceOnUse"
       id="clipPath352">
      <g
         id="g353">
        <rect
           x="0"
           y="0"
           width="1499.4399"
           height="659.71997"
           id="rect352" />
      </g>
    </clipPath>
    <clipPath
       clipPathUnits="userSpaceOnUse"
       id="clipPath350">
      <g
         id="g351">
        <rect
           x="0"
           y="0"
           width="1499.4399"
           height="659.71997"
           id="rect350" />
      </g>
    </clipPath>
    <clipPath
       clipPathUnits="userSpaceOnUse"
       id="clipPath348">
      <g
         id="g349">
        <rect
           x="0"
           y="0"
           width="1499.4399"
           height="659.71997"
           id="rect348" />
      </g>
    </clipPath>
    <clipPath
       clipPathUnits="userSpaceOnUse"
       id="clipPath346">
      <g
         id="g347">
        <rect
           x="0"
           y="0"
           width="1499.4399"
           height="659.71997"
           id="rect346" />
      </g>
    </clipPath>
    <clipPath
       clipPathUnits="userSpaceOnUse"
       id="clipPath344">
      <g
         id="g345">
        <rect
           x="0"
           y="0"
           width="1499.4399"
           height="659.71997"
           id="rect344" />
      </g>
    </clipPath>
    <clipPath
       clipPathUnits="userSpaceOnUse"
       id="clipPath342">
      <g
         id="g343">
        <rect
           x="0"
           y="0"
           width="1499.4399"
           height="659.71997"
           id="rect342" />
      </g>
    </clipPath>
  </defs>
  <rect
     width="100%"
     height="100%"
     style="fill:#ffffff;stroke:none"
     id="rect1"
     x="0"
     y="0" />
  <defs
     id="defs2">
    <clipPath
       id="cpMC4wMHwxMzg2LjQyfDAuMDB8NDYyLjE0">
      <rect
         x="0"
         y="0"
         width="1386.42"
         height="462.14001"
         id="rect2" />
    </clipPath>
  </defs>
  <g
     clip-path="url(#cpMC4wMHwxMzg2LjQyfDAuMDB8NDYyLjE0)"
     id="g3"
     transform="scale(0.90267164,1)">
    <rect
       x="0"
       y="5.6999998e-14"
       width="1386.42"
       height="462.14001"
       style="fill:#ffffff;stroke:#ffffff;stroke-width:1.36"
       id="rect3" />
  </g>
  <defs
     id="defs4" />
  <rect
     x="53.060001"
     y="28.5"
     width="621.09003"
     height="396.35999"
     style="fill:#ffffff;stroke:#d9d9d9;stroke-width:1.36;stroke-opacity:1"
     id="rect5"
     clip-path="url(#clipPath246)" />
  <polyline
     points="53.06,357.91 674.16,357.91 "
     style="stroke:#e3e1e1;stroke-width:1.36;stroke-linecap:butt;stroke-dasharray:7.24, 7.24"
     id="polyline5"
     clip-path="url(#clipPath245)" />
  <polyline
     points="53.06,246.70 674.16,246.70 "
     style="stroke:#e3e1e1;stroke-width:1.36;stroke-linecap:butt;stroke-dasharray:7.24, 7.24"
     id="polyline6"
     clip-path="url(#clipPath244)" />
  <polyline
     points="53.06,135.49 674.16,135.49 "
     style="stroke:#e3e1e1;stroke-width:1.36;stroke-linecap:butt;stroke-dasharray:7.24, 7.24"
     id="polyline7"
     clip-path="url(#clipPath243)" />
  <polyline
     points="57.71,313.42 65.45,317.87 73.20,340.11 80.94,300.08 88.69,340.11 96.43,326.77 104.17,313.42 111.92,304.53 119.66,295.63 127.41,313.42 135.15,300.08 142.90,308.97 150.64,300.08 158.38,326.77 166.13,291.18 173.87,335.67 181.62,317.87 189.36,322.32 197.11,322.32 204.85,313.42 212.59,335.67 220.34,335.67 228.08,300.08 235.83,344.56 243.57,393.50 251.32,282.28 259.06,304.53 266.80,331.22 274.55,268.94 282.29,317.87 290.04,317.87 297.78,326.77 305.53,326.77 313.27,317.87 321.01,304.53 328.76,304.53 336.50,300.08 344.25,326.77 351.99,344.56 359.74,335.67 367.48,335.67 375.23,371.25 382.97,322.32 390.71,349.01 398.46,304.53 406.20,340.11 413.95,344.56 421.69,308.97 429.44,300.08 437.18,366.80 444.92,375.70 452.67,340.11 460.41,357.91 468.16,331.22 475.90,322.32 483.65,308.97 491.39,308.97 499.13,313.42 506.88,295.63 514.62,335.67 522.37,349.01 530.11,313.42 537.86,322.32 545.60,308.97 553.34,291.18 561.09,304.53 568.83,331.22 576.58,304.53 584.32,313.42 592.07,326.77 599.81,286.73 607.55,326.77 615.30,291.18 623.04,344.56 630.79,340.11 638.53,282.28 646.28,277.84 654.02,286.73 661.76,313.42 669.51,362.36 "
     style="stroke:#a05c7b;stroke-width:3.2;stroke-linecap:butt;stroke-opacity:0.8"
     id="polyline8"
     clip-path="url(#clipPath242)" />
  <polyline
     points="57.71,82.10 65.45,99.90 73.20,131.04 80.94,86.55 88.69,99.90 96.43,91.00 104.17,86.55 111.92,86.55 119.66,77.66 127.41,91.00 135.15,77.66 142.90,86.55 150.64,77.66 158.38,82.10 166.13,77.66 173.87,95.45 181.62,91.00 189.36,95.45 197.11,108.79 204.85,86.55 212.59,117.69 220.34,108.79 228.08,86.55 235.83,135.49 243.57,264.49 251.32,86.55 259.06,108.79 266.80,122.14 274.55,95.45 282.29,91.00 290.04,104.35 297.78,91.00 305.53,86.55 313.27,82.10 321.01,77.66 328.76,135.49 336.50,95.45 344.25,99.90 351.99,166.62 359.74,131.04 367.48,108.79 375.23,171.07 382.97,91.00 390.71,99.90 398.46,108.79 406.20,99.90 413.95,113.24 421.69,104.35 429.44,77.66 437.18,162.18 444.92,175.52 452.67,86.55 460.41,157.73 468.16,135.49 475.90,99.90 483.65,91.00 491.39,95.45 499.13,86.55 506.88,82.10 514.62,99.90 522.37,91.00 530.11,108.79 537.86,82.10 545.60,91.00 553.34,99.90 561.09,77.66 568.83,95.45 576.58,86.55 584.32,82.10 592.07,86.55 599.81,82.10 607.55,95.45 615.30,77.66 623.04,126.59 630.79,113.24 638.53,99.90 646.28,73.21 654.02,86.55 661.76,144.38 669.51,108.79 "
     style="stroke:#dc5646;stroke-width:3.2;stroke-linecap:butt;stroke-opacity:0.8"
     id="polyline9"
     clip-path="url(#clipPath241)" />
  <polyline
     points="57.71,82.10 65.45,99.90 73.20,131.04 80.94,86.55 88.69,99.90 96.43,91.00 104.17,82.10 111.92,86.55 119.66,77.66 127.41,86.55 135.15,77.66 142.90,86.55 150.64,77.66 158.38,82.10 166.13,77.66 173.87,95.45 181.62,91.00 189.36,95.45 197.11,108.79 204.85,86.55 212.59,117.69 220.34,108.79 228.08,86.55 235.83,135.49 243.57,264.49 251.32,86.55 259.06,104.35 266.80,122.14 274.55,95.45 282.29,91.00 290.04,104.35 297.78,91.00 305.53,86.55 313.27,82.10 321.01,77.66 328.76,135.49 336.50,95.45 344.25,95.45 351.99,166.62 359.74,135.49 367.48,104.35 375.23,171.07 382.97,86.55 390.71,99.90 398.46,108.79 406.20,99.90 413.95,113.24 421.69,104.35 429.44,77.66 437.18,162.18 444.92,175.52 452.67,86.55 460.41,157.73 468.16,135.49 475.90,95.45 483.65,91.00 491.39,95.45 499.13,82.10 506.88,82.10 514.62,99.90 522.37,91.00 530.11,108.79 537.86,82.10 545.60,91.00 553.34,99.90 561.09,77.66 568.83,95.45 576.58,86.55 584.32,82.10 592.07,82.10 599.81,77.66 607.55,95.45 615.30,77.66 623.04,126.59 630.79,113.24 638.53,99.90 646.28,73.21 654.02,86.55 661.76,144.38 669.51,108.79 "
     style="stroke:#8a312b;stroke-width:3.2;stroke-linecap:butt;stroke-opacity:0.8"
     id="polyline10"
     clip-path="url(#clipPath240)" />
  <polyline
     points="57.71,64.31 65.45,86.55 73.20,113.24 80.94,73.21 88.69,77.66 96.43,73.21 104.17,68.76 111.92,68.76 119.66,59.86 127.41,73.21 135.15,59.86 142.90,68.76 150.64,59.86 158.38,59.86 166.13,59.86 173.87,77.66 181.62,73.21 189.36,77.66 197.11,91.00 204.85,68.76 212.59,99.90 220.34,91.00 228.08,68.76 235.83,122.14 243.57,251.14 251.32,73.21 259.06,91.00 266.80,108.79 274.55,82.10 282.29,73.21 290.04,86.55 297.78,73.21 305.53,68.76 313.27,64.31 321.01,59.86 328.76,122.14 336.50,82.10 344.25,82.10 351.99,153.28 359.74,122.14 367.48,91.00 375.23,148.83 382.97,73.21 390.71,77.66 398.46,91.00 406.20,77.66 413.95,95.45 421.69,86.55 429.44,59.86 437.18,144.38 444.92,162.18 452.67,68.76 460.41,144.38 468.16,117.69 475.90,77.66 483.65,73.21 491.39,77.66 499.13,64.31 506.88,64.31 514.62,82.10 522.37,68.76 530.11,91.00 537.86,64.31 545.60,73.21 553.34,82.10 561.09,59.86 568.83,73.21 576.58,68.76 584.32,64.31 592.07,64.31 599.81,64.31 607.55,77.66 615.30,59.86 623.04,108.79 630.79,95.45 638.53,86.55 646.28,55.41 654.02,68.76 661.76,131.04 669.51,91.00 "
     style="stroke:#4792b0;stroke-width:3.2;stroke-linecap:butt;stroke-opacity:1"
     id="polyline11"
     clip-path="url(#clipPath239)" />
  <polyline
     points="57.71,77.66 65.45,99.90 73.20,131.04 80.94,86.55 88.69,99.90 96.43,91.00 104.17,82.10 111.92,86.55 119.66,77.66 127.41,86.55 135.15,77.66 142.90,86.55 150.64,73.21 158.38,82.10 166.13,73.21 173.87,95.45 181.62,91.00 189.36,95.45 197.11,108.79 204.85,86.55 212.59,117.69 220.34,108.79 228.08,86.55 235.83,135.49 243.57,264.49 251.32,86.55 259.06,104.35 266.80,122.14 274.55,95.45 282.29,91.00 290.04,104.35 297.78,91.00 305.53,86.55 313.27,82.10 321.01,77.66 328.76,135.49 336.50,95.45 344.25,95.45 351.99,166.62 359.74,126.59 367.48,104.35 375.23,171.07 382.97,91.00 390.71,99.90 398.46,104.35 406.20,99.90 413.95,113.24 421.69,99.90 429.44,73.21 437.18,157.73 444.92,175.52 452.67,86.55 460.41,157.73 468.16,135.49 475.90,95.45 483.65,91.00 491.39,95.45 499.13,82.10 506.88,82.10 514.62,99.90 522.37,91.00 530.11,108.79 537.86,82.10 545.60,91.00 553.34,99.90 561.09,77.66 568.83,95.45 576.58,86.55 584.32,82.10 592.07,82.10 599.81,77.66 607.55,95.45 615.30,77.66 623.04,126.59 630.79,113.24 638.53,99.90 646.28,68.76 654.02,86.55 661.76,139.93 669.51,108.79 "
     style="stroke:#fdc46d;stroke-width:3.2;stroke-linecap:butt;stroke-opacity:0.8"
     id="polyline12"
     clip-path="url(#clipPath238)" />
  <polyline
     points="57.71,344.56 65.45,353.46 73.20,366.80 80.94,335.67 88.69,371.25 96.43,353.46 104.17,344.56 111.92,340.11 119.66,331.22 127.41,344.56 135.15,331.22 142.90,344.56 150.64,335.67 158.38,357.91 166.13,326.77 173.87,366.80 181.62,353.46 189.36,353.46 197.11,353.46 204.85,344.56 212.59,366.80 220.34,362.36 228.08,335.67 235.83,371.25 243.57,406.84 251.32,317.87 259.06,335.67 266.80,357.91 274.55,308.97 282.29,349.01 290.04,349.01 297.78,353.46 305.53,357.91 313.27,349.01 321.01,340.11 328.76,335.67 336.50,335.67 344.25,357.91 351.99,366.80 359.74,362.36 367.48,366.80 375.23,397.94 382.97,353.46 390.71,375.70 398.46,335.67 406.20,371.25 413.95,371.25 421.69,340.11 429.44,335.67 437.18,389.05 444.92,397.94 452.67,366.80 460.41,380.15 468.16,362.36 475.90,353.46 483.65,340.11 491.39,344.56 499.13,344.56 506.88,331.22 514.62,362.36 522.37,380.15 530.11,344.56 537.86,357.91 545.60,344.56 553.34,331.22 561.09,340.11 568.83,362.36 576.58,340.11 584.32,349.01 592.07,357.91 599.81,322.32 607.55,357.91 615.30,326.77 623.04,371.25 630.79,371.25 638.53,317.87 646.28,317.87 654.02,322.32 661.76,340.11 669.51,389.05 "
     style="stroke:#5e9d7e;stroke-width:3.2;stroke-linecap:butt;stroke-opacity:1"
     id="polyline13"
     clip-path="url(#clipPath237)" />
  <rect
     x="53.060001"
     y="28.5"
     width="621.09003"
     height="396.35999"
     style="stroke:#d9d9d9;stroke-width:1.36;stroke-opacity:1"
     id="rect13"
     clip-path="url(#clipPath236)" />
  <defs
     id="defs14" />
  <rect
     x="681.13"
     y="28.5"
     width="319.07001"
     height="396.35999"
     style="fill:#ffffff;stroke:none;stroke-width:1.36"
     id="rect15"
     clip-path="url(#clipPath234)" />
  <polyline
     points="681.13,357.91 1000.20,357.91 "
     style="stroke:#e3e1e1;stroke-width:1.36;stroke-linecap:butt;stroke-dasharray:7.24, 7.24"
     id="polyline15"
     clip-path="url(#clipPath233)" />
  <polyline
     points="681.13,246.70 1000.20,246.70 "
     style="stroke:#e3e1e1;stroke-width:1.36;stroke-linecap:butt;stroke-dasharray:7.24, 7.24"
     id="polyline16"
     clip-path="url(#clipPath232)" />
  <polyline
     points="681.13,135.49 1000.20,135.49 "
     style="stroke:#e3e1e1;stroke-width:1.36;stroke-linecap:butt;stroke-dasharray:7.24, 7.24"
     id="polyline17"
     clip-path="url(#clipPath231)" />
  <polyline
     points="685.78,282.28 693.52,304.53 701.26,255.59 709.01,300.08 716.75,304.53 724.50,322.32 732.24,304.53 739.99,264.49 747.73,304.53 755.48,304.53 763.22,260.04 770.96,260.04 778.71,260.04 786.45,300.08 794.20,313.42 801.94,277.84 809.69,282.28 817.43,313.42 825.17,335.67 832.92,286.73 840.66,300.08 848.41,317.87 856.15,340.11 863.90,313.42 871.64,313.42 879.38,308.97 887.13,322.32 894.87,268.94 902.62,317.87 910.36,304.53 918.11,317.87 925.85,282.28 933.59,300.08 941.34,322.32 949.08,300.08 956.83,300.08 964.57,340.11 972.32,317.87 980.06,304.53 987.80,304.53 995.55,308.97 "
     style="stroke:#a05c7b;stroke-width:3.2;stroke-linecap:butt;stroke-opacity:0.8"
     id="polyline18"
     clip-path="url(#clipPath230)" />
  <polyline
     points="685.78,73.21 693.52,68.76 701.26,91.00 709.01,95.45 716.75,99.90 724.50,131.04 732.24,82.10 739.99,68.76 747.73,104.35 755.48,73.21 763.22,64.31 770.96,73.21 778.71,64.31 786.45,91.00 794.20,153.28 801.94,108.79 809.69,99.90 817.43,64.31 825.17,99.90 832.92,77.66 840.66,77.66 848.41,175.52 856.15,108.79 863.90,104.35 871.64,86.55 879.38,108.79 887.13,99.90 894.87,82.10 902.62,86.55 910.36,95.45 918.11,82.10 925.85,122.14 933.59,82.10 941.34,68.76 949.08,73.21 956.83,68.76 964.57,77.66 972.32,73.21 980.06,86.55 987.80,91.00 995.55,82.10 "
     style="stroke:#dc5646;stroke-width:3.2;stroke-linecap:butt;stroke-opacity:0.8"
     id="polyline19"
     clip-path="url(#clipPath229)" />
  <polyline
     points="685.78,73.21 693.52,68.76 701.26,91.00 709.01,95.45 716.75,99.90 724.50,131.04 732.24,82.10 739.99,68.76 747.73,104.35 755.48,73.21 763.22,64.31 770.96,77.66 778.71,64.31 786.45,91.00 794.20,153.28 801.94,108.79 809.69,99.90 817.43,64.31 825.17,99.90 832.92,77.66 840.66,77.66 848.41,175.52 856.15,108.79 863.90,104.35 871.64,86.55 879.38,108.79 887.13,99.90 894.87,82.10 902.62,86.55 910.36,95.45 918.11,82.10 925.85,122.14 933.59,82.10 941.34,68.76 949.08,73.21 956.83,68.76 964.57,77.66 972.32,68.76 980.06,86.55 987.80,91.00 995.55,82.10 "
     style="stroke:#8a312b;stroke-width:3.2;stroke-linecap:butt;stroke-opacity:0.8"
     id="polyline20"
     clip-path="url(#clipPath228)" />
  <polyline
     points="685.78,59.86 693.52,55.41 701.26,77.66 709.01,82.10 716.75,86.55 724.50,117.69 732.24,64.31 739.99,55.41 747.73,91.00 755.48,59.86 763.22,55.41 770.96,64.31 778.71,50.96 786.45,77.66 794.20,144.38 801.94,99.90 809.69,91.00 817.43,46.52 825.17,82.10 832.92,64.31 840.66,64.31 848.41,166.62 856.15,86.55 863.90,86.55 871.64,73.21 879.38,95.45 887.13,86.55 894.87,68.76 902.62,68.76 910.36,82.10 918.11,64.31 925.85,108.79 933.59,68.76 941.34,55.41 949.08,59.86 956.83,55.41 964.57,59.86 972.32,55.41 980.06,73.21 987.80,73.21 995.55,68.76 "
     style="stroke:#4792b0;stroke-width:3.2;stroke-linecap:butt;stroke-opacity:1"
     id="polyline21"
     clip-path="url(#clipPath227)" />
  <polyline
     points="685.78,73.21 693.52,68.76 701.26,86.55 709.01,91.00 716.75,99.90 724.50,126.59 732.24,77.66 739.99,68.76 747.73,104.35 755.48,73.21 763.22,64.31 770.96,73.21 778.71,64.31 786.45,91.00 794.20,153.28 801.94,108.79 809.69,99.90 817.43,64.31 825.17,99.90 832.92,73.21 840.66,77.66 848.41,175.52 856.15,108.79 863.90,104.35 871.64,86.55 879.38,108.79 887.13,99.90 894.87,82.10 902.62,86.55 910.36,91.00 918.11,82.10 925.85,117.69 933.59,82.10 941.34,68.76 949.08,73.21 956.83,68.76 964.57,77.66 972.32,68.76 980.06,86.55 987.80,86.55 995.55,82.10 "
     style="stroke:#fdc46d;stroke-width:3.2;stroke-linecap:butt;stroke-opacity:0.8"
     id="polyline22"
     clip-path="url(#clipPath226)" />
  <polyline
     points="685.78,317.87 693.52,340.11 701.26,295.63 709.01,335.67 716.75,335.67 724.50,353.46 732.24,340.11 739.99,304.53 747.73,335.67 755.48,335.67 763.22,300.08 770.96,295.63 778.71,295.63 786.45,335.67 794.20,349.01 801.94,313.42 809.69,322.32 817.43,349.01 825.17,362.36 832.92,322.32 840.66,335.67 848.41,344.56 856.15,371.25 863.90,344.56 871.64,344.56 879.38,344.56 887.13,353.46 894.87,304.53 902.62,349.01 910.36,335.67 918.11,349.01 925.85,317.87 933.59,335.67 941.34,353.46 949.08,335.67 956.83,331.22 964.57,371.25 972.32,353.46 980.06,335.67 987.80,340.11 995.55,340.11 "
     style="stroke:#5e9d7e;stroke-width:3.2;stroke-linecap:butt;stroke-opacity:1"
     id="polyline23"
     clip-path="url(#clipPath225)" />
  <rect
     x="681.13"
     y="28.5"
     width="319.07001"
     height="396.35999"
     style="stroke:#d9d9d9;stroke-width:1.36;stroke-opacity:1"
     id="rect23"
     clip-path="url(#clipPath224)" />
  <defs
     id="defs24" />
  <rect
     x="1007.17"
     y="28.5"
     width="226.13"
     height="396.35999"
     style="fill:#ffffff;stroke:none;stroke-width:1.36"
     id="rect25"
     clip-path="url(#clipPath258)" />
  <polyline
     points="1007.17,357.91 1233.30,357.91 "
     style="stroke:#e3e1e1;stroke-width:1.36;stroke-linecap:butt;stroke-dasharray:7.24, 7.24"
     id="polyline25"
     clip-path="url(#clipPath257)" />
  <polyline
     points="1007.17,246.70 1233.30,246.70 "
     style="stroke:#e3e1e1;stroke-width:1.36;stroke-linecap:butt;stroke-dasharray:7.24, 7.24"
     id="polyline26"
     clip-path="url(#clipPath256)" />
  <polyline
     points="1007.17,135.49 1233.30,135.49 "
     style="stroke:#e3e1e1;stroke-width:1.36;stroke-linecap:butt;stroke-dasharray:7.24, 7.24"
     id="polyline27"
     clip-path="url(#clipPath255)" />
  <polyline
     points="1011.82,335.67 1019.56,260.04 1027.30,322.32 1035.05,291.18 1042.79,277.84 1050.54,291.18 1058.28,277.84 1066.03,277.84 1073.77,308.97 1081.52,304.53 1089.26,300.08 1097.00,304.53 1104.75,304.53 1112.49,291.18 1120.24,220.01 1127.98,242.25 1135.73,277.84 1143.47,317.87 1151.21,286.73 1158.96,282.28 1166.70,308.97 1174.45,308.97 1182.19,295.63 1189.94,304.53 1197.68,268.94 1205.42,300.08 1213.17,255.59 1220.91,268.94 1228.66,255.59 "
     style="stroke:#a05c7b;stroke-width:3.2;stroke-linecap:butt;stroke-opacity:0.8"
     id="polyline28"
     clip-path="url(#clipPath254)" />
  <polyline
     points="1011.82,228.90 1019.56,126.59 1027.30,184.42 1035.05,144.38 1042.79,144.38 1050.54,162.18 1058.28,157.73 1066.03,157.73 1073.77,202.21 1081.52,184.42 1089.26,193.31 1097.00,211.11 1104.75,202.21 1112.49,144.38 1120.24,126.59 1127.98,148.83 1135.73,139.93 1143.47,202.21 1151.21,157.73 1158.96,144.38 1166.70,184.42 1174.45,193.31 1182.19,166.62 1189.94,166.62 1197.68,148.83 1205.42,188.87 1213.17,131.04 1220.91,139.93 1228.66,131.04 "
     style="stroke:#dc5646;stroke-width:3.2;stroke-linecap:butt;stroke-opacity:0.8"
     id="polyline29"
     clip-path="url(#clipPath253)" />
  <polyline
     points="1011.82,228.90 1019.56,126.59 1027.30,184.42 1035.05,144.38 1042.79,144.38 1050.54,162.18 1058.28,157.73 1066.03,157.73 1073.77,202.21 1081.52,184.42 1089.26,193.31 1097.00,211.11 1104.75,202.21 1112.49,144.38 1120.24,126.59 1127.98,148.83 1135.73,144.38 1143.47,202.21 1151.21,157.73 1158.96,144.38 1166.70,184.42 1174.45,193.31 1182.19,166.62 1189.94,166.62 1197.68,148.83 1205.42,193.31 1213.17,131.04 1220.91,139.93 1228.66,131.04 "
     style="stroke:#8a312b;stroke-width:3.2;stroke-linecap:butt;stroke-opacity:0.8"
     id="polyline30"
     clip-path="url(#clipPath252)" />
  <polyline
     points="1011.82,224.45 1019.56,122.14 1027.30,179.97 1035.05,139.93 1042.79,139.93 1050.54,162.18 1058.28,153.28 1066.03,153.28 1073.77,197.76 1081.52,179.97 1089.26,188.87 1097.00,211.11 1104.75,202.21 1112.49,144.38 1120.24,122.14 1127.98,144.38 1135.73,135.49 1143.47,197.76 1151.21,153.28 1158.96,144.38 1166.70,179.97 1174.45,188.87 1182.19,162.18 1189.94,162.18 1197.68,144.38 1205.42,188.87 1213.17,126.59 1220.91,135.49 1228.66,131.04 "
     style="stroke:#4792b0;stroke-width:3.2;stroke-linecap:butt;stroke-opacity:1"
     id="polyline31"
     clip-path="url(#clipPath251)" />
  <polyline
     points="1011.82,228.90 1019.56,126.59 1027.30,184.42 1035.05,144.38 1042.79,139.93 1050.54,162.18 1058.28,157.73 1066.03,157.73 1073.77,202.21 1081.52,184.42 1089.26,193.31 1097.00,211.11 1104.75,202.21 1112.49,144.38 1120.24,122.14 1127.98,148.83 1135.73,139.93 1143.47,202.21 1151.21,157.73 1158.96,144.38 1166.70,184.42 1174.45,193.31 1182.19,166.62 1189.94,166.62 1197.68,148.83 1205.42,188.87 1213.17,131.04 1220.91,139.93 1228.66,131.04 "
     style="stroke:#fdc46d;stroke-width:3.2;stroke-linecap:butt;stroke-opacity:0.8"
     id="polyline32"
     clip-path="url(#clipPath250)" />
  <polyline
     points="1011.82,357.91 1019.56,295.63 1027.30,349.01 1035.05,322.32 1042.79,313.42 1050.54,322.32 1058.28,313.42 1066.03,308.97 1073.77,335.67 1081.52,331.22 1089.26,326.77 1097.00,331.22 1104.75,326.77 1112.49,326.77 1120.24,246.70 1127.98,268.94 1135.73,308.97 1143.47,340.11 1151.21,317.87 1158.96,313.42 1166.70,340.11 1174.45,331.22 1182.19,326.77 1189.94,331.22 1197.68,300.08 1205.42,331.22 1213.17,286.73 1220.91,300.08 1228.66,286.73 "
     style="stroke:#5e9d7e;stroke-width:3.2;stroke-linecap:butt;stroke-opacity:1"
     id="polyline33"
     clip-path="url(#clipPath249)" />
  <rect
     x="1007.17"
     y="28.5"
     width="226.13"
     height="396.35999"
     style="stroke:#d9d9d9;stroke-width:1.36;stroke-opacity:1"
     id="rect33"
     clip-path="url(#clipPath248)" />
  <defs
     id="defs34">
    <clipPath
       id="cpNTMuMDZ8Njc0LjE2fDYuOTd8MjguNTA=">
      <rect
         x="53.060001"
         y="6.9699998"
         width="621.09003"
         height="21.530001"
         id="rect34" />
    </clipPath>
  </defs>
  <g
     clip-path="url(#cpNTMuMDZ8Njc0LjE2fDYuOTd8MjguNTA=)"
     id="g35"
     style="fill:#d9d9d9;fill-opacity:1;stroke:none">
    <rect
       x="53.060001"
       y="6.9699998"
       width="621.09003"
       height="21.530001"
       style="fill:#d9d9d9;fill-opacity:1;stroke:none;stroke-width:1.36"
       id="rect35" />
    <text
       x="363.60999"
       y="21.74"
       text-anchor="middle"
       style="font-size:11.2px;font-family:Arial;fill:#d9d9d9;fill-opacity:1;stroke:none"
       textLength="24.26"
       lengthAdjust="spacingAndGlyphs"
       id="text35">alt80</text>
  </g>
  <defs
     id="defs36">
    <clipPath
       id="cpNjgxLjEzfDEwMDAuMjB8Ni45N3wyOC41MA==">
      <rect
         x="681.13"
         y="6.9699998"
         width="319.07001"
         height="21.530001"
         id="rect36" />
    </clipPath>
  </defs>
  <g
     clip-path="url(#cpNjgxLjEzfDEwMDAuMjB8Ni45N3wyOC41MA==)"
     id="g37"
     style="stroke:none">
    <rect
       x="681.13"
       y="6.9699998"
       width="319.07001"
       height="21.530001"
       style="fill:#d9d9d9;stroke:none;stroke-width:1.36"
       id="rect37" />
  </g>
  <defs
     id="defs38">
    <clipPath
       id="cpMTAwNy4xN3wxMjMzLjMwfDYuOTd8MjguNTA=">
      <rect
         x="1007.17"
         y="6.9699998"
         width="226.13"
         height="21.530001"
         id="rect38" />
    </clipPath>
  </defs>
  <g
     clip-path="url(#cpMTAwNy4xN3wxMjMzLjMwfDYuOTd8MjguNTA=)"
     id="g39"
     style="stroke:none">
    <rect
       x="1007.17"
       y="6.9699998"
       width="226.13"
       height="21.530001"
       style="fill:#d9d9d9;stroke:none;stroke-width:1.36"
       id="rect39" />
  </g>
  <text
     x="46.779999"
     y="362.20999"
     text-anchor="end"
     style="font-size:12px;font-family:Arial;fill:#4d4d4d"
     textLength="23.360001"
     lengthAdjust="spacingAndGlyphs"
     id="text190">0.25</text>
  <text
     x="46.779999"
     y="250.99001"
     text-anchor="end"
     style="font-size:12px;font-family:Arial;fill:#4d4d4d"
     textLength="23.360001"
     lengthAdjust="spacingAndGlyphs"
     id="text191">0.50</text>
  <text
     x="46.779999"
     y="139.78"
     text-anchor="end"
     style="font-size:12px;font-family:Arial;fill:#4d4d4d"
     textLength="23.360001"
     lengthAdjust="spacingAndGlyphs"
     id="text192">0.75</text>
  <polyline
     points="49.57,357.91 53.06,357.91 "
     style="stroke:#333333;stroke-width:1.36;stroke-linecap:butt"
     id="polyline192"
     clip-path="url(#clipPath222)" />
  <polyline
     points="49.57,246.70 53.06,246.70 "
     style="stroke:#333333;stroke-width:1.36;stroke-linecap:butt"
     id="polyline193"
     clip-path="url(#clipPath221)" />
  <polyline
     points="49.57,135.49 53.06,135.49 "
     style="stroke:#333333;stroke-width:1.36;stroke-linecap:butt"
     id="polyline194"
     clip-path="url(#clipPath220)" />
  <text
     x="643.17999"
     y="452.22"
     text-anchor="middle"
     style="font-size:14px;font-family:Arial"
     textLength="54.450001"
     lengthAdjust="spacingAndGlyphs"
     id="text194"
     transform="translate(0,-9)">Samples</text>
  <text
     transform="rotate(-90,121.84,104.84)"
     text-anchor="middle"
     style="font-size:14px;font-family:Arial"
     textLength="129.14999"
     lengthAdjust="spacingAndGlyphs"
     id="text195">Mapping Percentage</text>
  <g
     id="g265"
     transform="translate(-888.85,530.81161)">
    <rect
       x="875.63"
       y="603.95001"
       width="15.86"
       height="15.86"
       style="fill:#4792b0;fill-opacity:1;stroke:#5e9d7e;stroke-width:1.07;stroke-linecap:butt;stroke-linejoin:miter;stroke-miterlimit:10;stroke-opacity:1"
       id="rect326"
       clip-path="url(#clipPath352)"
       transform="matrix(1.0009254,0,0,0.17363959,298.46867,-169.49305)" />
    <rect
       x="875.63"
       y="626.71002"
       width="15.86"
       height="15.86"
       style="fill:#8a312b;fill-opacity:1;stroke:#8a312b;stroke-width:1.07;stroke-linecap:butt;stroke-linejoin:miter;stroke-miterlimit:10;stroke-opacity:1"
       id="rect328"
       clip-path="url(#clipPath350)"
       transform="matrix(1.0009254,0,0,0.17363959,414.15264,-173.44509)" />
    <rect
       x="931.75"
       y="603.95001"
       width="15.86"
       height="15.86"
       style="fill:#dc5646;fill-opacity:1;stroke:#dc5646;stroke-width:1.07;stroke-linecap:butt;stroke-linejoin:miter;stroke-miterlimit:10;stroke-opacity:1"
       id="rect330"
       clip-path="url(#clipPath348)"
       transform="matrix(1.0009254,0,0,0.17363959,492.03618,-169.49305)" />
    <rect
       x="931.75"
       y="626.71002"
       width="15.86"
       height="15.86"
       style="fill:#fdc46d;fill-opacity:1;stroke:#fdc46d;stroke-width:1.07;stroke-linecap:butt;stroke-linejoin:miter;stroke-miterlimit:10;stroke-opacity:1"
       id="rect332"
       clip-path="url(#clipPath346)"
       transform="matrix(1.0009254,0,0,0.17363959,635.88976,-173.44509)" />
    <rect
       x="991.31"
       y="603.95001"
       width="15.86"
       height="15.86"
       style="fill:#a05c7b;fill-opacity:1;stroke:#a05c7b;stroke-width:1.07;stroke-linecap:butt;stroke-linejoin:miter;stroke-miterlimit:10;stroke-opacity:1"
       id="rect334"
       clip-path="url(#clipPath344)"
       transform="matrix(1.0009254,0,0,0.17363959,699.77933,-169.49305)" />
    <rect
       x="991.31"
       y="626.71002"
       width="15.86"
       height="15.86"
       style="fill:#5e9d7e;fill-opacity:1;stroke:#5e9d7e;stroke-width:1.07;stroke-linecap:butt;stroke-linejoin:miter;stroke-miterlimit:10;stroke-opacity:1"
       id="rect336"
       clip-path="url(#clipPath342)"
       transform="matrix(1.0009254,0,0,0.17363959,841.55287,-173.44509)" />
    <text
       xml:space="preserve"
       style="font-style:italic;font-variant:normal;font-weight:normal;font-stretch:normal;font-size:14px;line-height:123.023%;font-family:Helvetica;-inkscape-font-specification:'Helvetica Italic';white-space:pre;fill:#000000;stroke-width:1.2081;stroke-linecap:butt;stroke-linejoin:round"
       x="1349.1779"
       y="-58.26989"
       id="text380819-6"><tspan
         sodipodi:role="line"
         style="font-style:italic;font-variant:normal;font-weight:normal;font-stretch:normal;font-size:14px;line-height:123.023%;font-family:Helvetica;-inkscape-font-specification:'Helvetica Italic';text-align:center;text-anchor:middle;fill:#000000;stroke-width:1.2081"
         x="1349.1779"
         y="-58.26989"
         id="tspan380817-7">P. axillaris <tspan
   style="font-style:italic;font-variant:normal;font-weight:normal;font-stretch:normal;font-size:14px;line-height:123.023%;font-family:Helvetica;-inkscape-font-specification:'Helvetica Italic';fill:#000000;stroke-width:1.2081"
   id="tspan618431-5">I</tspan></tspan></text>
    <text
       xml:space="preserve"
       style="font-style:italic;font-variant:normal;font-weight:normal;font-stretch:normal;font-size:14px;line-height:123.023%;font-family:Helvetica;-inkscape-font-specification:'Helvetica Italic';white-space:pre;fill:#000000;stroke-width:1.2081;stroke-linecap:butt;stroke-linejoin:round"
       x="1487.7783"
       y="-58.26989"
       id="text380829-5"><tspan
         sodipodi:role="line"
         style="font-style:italic;font-variant:normal;font-weight:normal;font-stretch:normal;font-size:14px;line-height:123.023%;font-family:Helvetica;-inkscape-font-specification:'Helvetica Italic';text-align:center;text-anchor:middle;fill:#000000;stroke-width:1.2081"
         x="1487.7783"
         y="-58.26989"
         id="tspan380827-9"><tspan
   style="font-style:italic;font-variant:normal;font-weight:normal;font-stretch:normal;font-size:14px;line-height:123.023%;font-family:Helvetica;-inkscape-font-specification:'Helvetica Italic';fill:#000000;stroke-width:1.2081"
   id="tspan528275-5">P. axillaris </tspan>II*</tspan></text>
    <text
       xml:space="preserve"
       style="font-style:italic;font-variant:normal;font-weight:normal;font-stretch:normal;font-size:14px;line-height:123.023%;font-family:Helvetica;-inkscape-font-specification:'Helvetica Italic';white-space:pre;fill:#000000;stroke-width:1.2081;stroke-linecap:butt;stroke-linejoin:round"
       x="1224.2493"
       y="-58.256218"
       id="text380839-5"><tspan
         sodipodi:role="line"
         style="font-style:italic;font-variant:normal;font-weight:normal;font-stretch:normal;font-size:14px;line-height:123.023%;font-family:Helvetica;-inkscape-font-specification:'Helvetica Italic';text-align:center;text-anchor:middle;fill:#000000;stroke-width:1.2081"
         x="1224.2493"
         y="-58.256218"
         id="tspan380837-5">P. inflata</tspan></text>
    <text
       xml:space="preserve"
       style="font-style:italic;font-variant:normal;font-weight:normal;font-stretch:normal;font-size:14px;line-height:123.023%;font-family:Helvetica;-inkscape-font-specification:'Helvetica Italic';white-space:pre;fill:#000000;stroke-width:1.2081;stroke-linecap:butt;stroke-linejoin:round"
       x="1621.3851"
       y="-58.321159"
       id="text380849-1"><tspan
         sodipodi:role="line"
         style="font-style:italic;font-variant:normal;font-weight:normal;font-stretch:normal;font-size:14px;line-height:123.023%;font-family:Helvetica;-inkscape-font-specification:'Helvetica Italic';text-align:center;text-anchor:middle;fill:#000000;stroke-width:1.2081"
         x="1621.3851"
         y="-58.321159"
         id="tspan380847-5">P. secreta</tspan></text>
    <text
       xml:space="preserve"
       style="font-style:italic;font-variant:normal;font-weight:normal;font-stretch:normal;font-size:14px;line-height:123.023%;font-family:Helvetica;-inkscape-font-specification:'Helvetica Italic';white-space:pre;fill:#000000;stroke-width:1.2081;stroke-linecap:butt;stroke-linejoin:round"
       x="1753.9426"
       y="-59.667839"
       id="text378-4"><tspan
         sodipodi:role="line"
         style="font-style:italic;font-variant:normal;font-weight:normal;font-stretch:normal;font-size:14px;line-height:123.023%;font-family:Helvetica;-inkscape-font-specification:'Helvetica Italic';text-align:center;text-anchor:middle;fill:#000000;stroke-width:1.2081"
         x="1753.9426"
         y="-59.667839"
         id="tspan378-7">N. sylvestris</tspan></text>
    <text
       xml:space="preserve"
       style="font-style:italic;font-variant:normal;font-weight:normal;font-stretch:normal;font-size:14px;line-height:123.023%;font-family:Helvetica;-inkscape-font-specification:'Helvetica Italic';white-space:pre;fill:#000000;stroke-width:1.2081;stroke-linecap:butt;stroke-linejoin:round"
       x="1906.3073"
       y="-58.222038"
       id="text379-8"><tspan
         sodipodi:role="line"
         style="font-style:italic;font-variant:normal;font-weight:normal;font-stretch:normal;font-size:14px;line-height:123.023%;font-family:Helvetica;-inkscape-font-specification:'Helvetica Italic';text-align:center;text-anchor:middle;fill:#000000;stroke-width:1.2081"
         x="1906.3073"
         y="-58.222038"
         id="tspan379-8">S. habrochaites</tspan></text>
    <text
       xml:space="preserve"
       style="font-weight:bold;font-size:14px;line-height:1.25;font-family:Helvetica;-inkscape-font-specification:'Helvetica, Bold';white-space:pre;stroke-width:0.75"
       x="1109.0751"
       y="-63.470329"
       id="text670"><tspan
         sodipodi:role="line"
         id="tspan669"
         style="font-size:14px;text-align:center;text-anchor:middle;stroke-width:0.75"
         x="1109.0751"
         y="-63.470329">Reference </tspan><tspan
         sodipodi:role="line"
         style="font-size:14px;text-align:center;text-anchor:middle;stroke-width:0.75"
         x="1109.0751"
         y="-45.970329"
         id="tspan670">genome</tspan></text>
  </g>
  <text
     xml:space="preserve"
     style="font-weight:bold;font-size:12px;line-height:1.25;font-family:Helvetica;-inkscape-font-specification:'Helvetica, Bold';stroke-width:0.75"
     x="350.6763"
     y="22.065079"
     id="text263"><tspan
       sodipodi:role="line"
       id="tspan263"
       style="stroke-width:0.75"
       x="350.6763"
       y="22.065079">POP</tspan></text>
  <text
     xml:space="preserve"
     style="font-weight:bold;font-size:12px;line-height:1.25;font-family:Helvetica;-inkscape-font-specification:'Helvetica, Bold';stroke-width:0.75"
     x="812.80951"
     y="22.05336"
     id="text264"><tspan
       sodipodi:role="line"
       id="tspan264"
       style="stroke-width:0.75"
       x="812.80951"
       y="22.05336">INTRA-P4</tspan></text>
  <text
     xml:space="preserve"
     style="font-weight:bold;font-size:12px;line-height:1.25;font-family:Helvetica;-inkscape-font-specification:'Helvetica, Bold';stroke-width:0.75"
     x="1092.0895"
     y="22.015274"
     id="text265"><tspan
       sodipodi:role="line"
       id="tspan265"
       style="stroke-width:0.75"
       x="1092.0895"
       y="22.015274">INTER-C5</tspan></text>
</svg>
