<?xml version="1.0" encoding="utf-8" standalone="no"?>
<!DOCTYPE svg PUBLIC "-//W3C//DTD SVG 1.1//EN"
  "http://www.w3.org/Graphics/SVG/1.1/DTD/svg11.dtd">
<svg xmlns:xlink="http://www.w3.org/1999/xlink" width="754.04125pt" height="475.96pt" viewBox="0 0 754.04125 475.96" xmlns="http://www.w3.org/2000/svg" version="1.1">
 <metadata>
  <rdf:RDF xmlns:dc="http://purl.org/dc/elements/1.1/" xmlns:cc="http://creativecommons.org/ns#" xmlns:rdf="http://www.w3.org/1999/02/22-rdf-syntax-ns#">
   <cc:Work>
    <dc:type rdf:resource="http://purl.org/dc/dcmitype/StillImage"/>
    <dc:date>2025-10-30T12:13:35.096271</dc:date>
    <dc:format>image/svg+xml</dc:format>
    <dc:creator>
     <cc:Agent>
      <dc:title>Matplotlib v3.9.4, https://matplotlib.org/</dc:title>
     </cc:Agent>
    </dc:creator>
   </cc:Work>
  </rdf:RDF>
 </metadata>
 <defs>
  <style type="text/css">*{stroke-linejoin: round; stroke-linecap: butt}</style>
 </defs>
 <g id="figure_1">
  <g id="patch_1">
   <path d="M 0 475.96 
L 754.04125 475.96 
L 754.04125 0 
L 0 0 
z
" style="fill: #ffffff"/>
  </g>
  <g id="axes_1">
   <g id="patch_2">
    <path d="M 43.78125 419.76 
L 255.707917 419.76 
L 255.707917 48.48 
L 43.78125 48.48 
z
" style="fill: #ffffff"/>
   </g>
   <g id="matplotlib.axis_1">
    <g id="xtick_1"/>
    <g id="xtick_2"/>
    <g id="xtick_3"/>
    <g id="xtick_4"/>
    <g id="xtick_5"/>
    <g id="xtick_6"/>
   </g>
   <g id="matplotlib.axis_2">
    <g id="ytick_1">
     <g id="line2d_1">
      <defs>
       <path id="mf79024ab14" d="M 0 0 
L -3.5 0 
" style="stroke: #000000; stroke-width: 0.8"/>
      </defs>
      <g>
       <use xlink:href="#mf79024ab14" x="43.78125" y="377.248654" style="stroke: #000000; stroke-width: 0.8"/>
      </g>
     </g>
     <g id="text_1">
      <!-- 0.2 -->
      <g transform="translate(20.878125 381.047872) scale(0.1 -0.1)">
       <defs>
        <path id="DejaVuSans-30" d="M 2034 4250 
Q 1547 4250 1301 3770 
Q 1056 3291 1056 2328 
Q 1056 1369 1301 889 
Q 1547 409 2034 409 
Q 2525 409 2770 889 
Q 3016 1369 3016 2328 
Q 3016 3291 2770 3770 
Q 2525 4250 2034 4250 
z
M 2034 4750 
Q 2819 4750 3233 4129 
Q 3647 3509 3647 2328 
Q 3647 1150 3233 529 
Q 2819 -91 2034 -91 
Q 1250 -91 836 529 
Q 422 1150 422 2328 
Q 422 3509 836 4129 
Q 1250 4750 2034 4750 
z
" transform="scale(0.015625)"/>
        <path id="DejaVuSans-2e" d="M 684 794 
L 1344 794 
L 1344 0 
L 684 0 
L 684 794 
z
" transform="scale(0.015625)"/>
        <path id="DejaVuSans-32" d="M 1228 531 
L 3431 531 
L 3431 0 
L 469 0 
L 469 531 
Q 828 903 1448 1529 
Q 2069 2156 2228 2338 
Q 2531 2678 2651 2914 
Q 2772 3150 2772 3378 
Q 2772 3750 2511 3984 
Q 2250 4219 1831 4219 
Q 1534 4219 1204 4116 
Q 875 4013 500 3803 
L 500 4441 
Q 881 4594 1212 4672 
Q 1544 4750 1819 4750 
Q 2544 4750 2975 4387 
Q 3406 4025 3406 3419 
Q 3406 3131 3298 2873 
Q 3191 2616 2906 2266 
Q 2828 2175 2409 1742 
Q 1991 1309 1228 531 
z
" transform="scale(0.015625)"/>
       </defs>
       <use xlink:href="#DejaVuSans-30"/>
       <use xlink:href="#DejaVuSans-2e" x="63.623047"/>
       <use xlink:href="#DejaVuSans-32" x="95.410156"/>
      </g>
     </g>
    </g>
    <g id="ytick_2">
     <g id="line2d_2">
      <g>
       <use xlink:href="#mf79024ab14" x="43.78125" y="334.523682" style="stroke: #000000; stroke-width: 0.8"/>
      </g>
     </g>
     <g id="text_2">
      <!-- 0.3 -->
      <g transform="translate(20.878125 338.322901) scale(0.1 -0.1)">
       <defs>
        <path id="DejaVuSans-33" d="M 2597 2516 
Q 3050 2419 3304 2112 
Q 3559 1806 3559 1356 
Q 3559 666 3084 287 
Q 2609 -91 1734 -91 
Q 1441 -91 1130 -33 
Q 819 25 488 141 
L 488 750 
Q 750 597 1062 519 
Q 1375 441 1716 441 
Q 2309 441 2620 675 
Q 2931 909 2931 1356 
Q 2931 1769 2642 2001 
Q 2353 2234 1838 2234 
L 1294 2234 
L 1294 2753 
L 1863 2753 
Q 2328 2753 2575 2939 
Q 2822 3125 2822 3475 
Q 2822 3834 2567 4026 
Q 2313 4219 1838 4219 
Q 1578 4219 1281 4162 
Q 984 4106 628 3988 
L 628 4550 
Q 988 4650 1302 4700 
Q 1616 4750 1894 4750 
Q 2613 4750 3031 4423 
Q 3450 4097 3450 3541 
Q 3450 3153 3228 2886 
Q 3006 2619 2597 2516 
z
" transform="scale(0.015625)"/>
       </defs>
       <use xlink:href="#DejaVuSans-30"/>
       <use xlink:href="#DejaVuSans-2e" x="63.623047"/>
       <use xlink:href="#DejaVuSans-33" x="95.410156"/>
      </g>
     </g>
    </g>
    <g id="ytick_3">
     <g id="line2d_3">
      <g>
       <use xlink:href="#mf79024ab14" x="43.78125" y="291.798711" style="stroke: #000000; stroke-width: 0.8"/>
      </g>
     </g>
     <g id="text_3">
      <!-- 0.4 -->
      <g transform="translate(20.878125 295.59793) scale(0.1 -0.1)">
       <defs>
        <path id="DejaVuSans-34" d="M 2419 4116 
L 825 1625 
L 2419 1625 
L 2419 4116 
z
M 2253 4666 
L 3047 4666 
L 3047 1625 
L 3713 1625 
L 3713 1100 
L 3047 1100 
L 3047 0 
L 2419 0 
L 2419 1100 
L 313 1100 
L 313 1709 
L 2253 4666 
z
" transform="scale(0.015625)"/>
       </defs>
       <use xlink:href="#DejaVuSans-30"/>
       <use xlink:href="#DejaVuSans-2e" x="63.623047"/>
       <use xlink:href="#DejaVuSans-34" x="95.410156"/>
      </g>
     </g>
    </g>
    <g id="ytick_4">
     <g id="line2d_4">
      <g>
       <use xlink:href="#mf79024ab14" x="43.78125" y="249.07374" style="stroke: #000000; stroke-width: 0.8"/>
      </g>
     </g>
     <g id="text_4">
      <!-- 0.5 -->
      <g transform="translate(20.878125 252.872959) scale(0.1 -0.1)">
       <defs>
        <path id="DejaVuSans-35" d="M 691 4666 
L 3169 4666 
L 3169 4134 
L 1269 4134 
L 1269 2991 
Q 1406 3038 1543 3061 
Q 1681 3084 1819 3084 
Q 2600 3084 3056 2656 
Q 3513 2228 3513 1497 
Q 3513 744 3044 326 
Q 2575 -91 1722 -91 
Q 1428 -91 1123 -41 
Q 819 9 494 109 
L 494 744 
Q 775 591 1075 516 
Q 1375 441 1709 441 
Q 2250 441 2565 725 
Q 2881 1009 2881 1497 
Q 2881 1984 2565 2268 
Q 2250 2553 1709 2553 
Q 1456 2553 1204 2497 
Q 953 2441 691 2322 
L 691 4666 
z
" transform="scale(0.015625)"/>
       </defs>
       <use xlink:href="#DejaVuSans-30"/>
       <use xlink:href="#DejaVuSans-2e" x="63.623047"/>
       <use xlink:href="#DejaVuSans-35" x="95.410156"/>
      </g>
     </g>
    </g>
    <g id="ytick_5">
     <g id="line2d_5">
      <g>
       <use xlink:href="#mf79024ab14" x="43.78125" y="206.348769" style="stroke: #000000; stroke-width: 0.8"/>
      </g>
     </g>
     <g id="text_5">
      <!-- 0.6 -->
      <g transform="translate(20.878125 210.147987) scale(0.1 -0.1)">
       <defs>
        <path id="DejaVuSans-36" d="M 2113 2584 
Q 1688 2584 1439 2293 
Q 1191 2003 1191 1497 
Q 1191 994 1439 701 
Q 1688 409 2113 409 
Q 2538 409 2786 701 
Q 3034 994 3034 1497 
Q 3034 2003 2786 2293 
Q 2538 2584 2113 2584 
z
M 3366 4563 
L 3366 3988 
Q 3128 4100 2886 4159 
Q 2644 4219 2406 4219 
Q 1781 4219 1451 3797 
Q 1122 3375 1075 2522 
Q 1259 2794 1537 2939 
Q 1816 3084 2150 3084 
Q 2853 3084 3261 2657 
Q 3669 2231 3669 1497 
Q 3669 778 3244 343 
Q 2819 -91 2113 -91 
Q 1303 -91 875 529 
Q 447 1150 447 2328 
Q 447 3434 972 4092 
Q 1497 4750 2381 4750 
Q 2619 4750 2861 4703 
Q 3103 4656 3366 4563 
z
" transform="scale(0.015625)"/>
       </defs>
       <use xlink:href="#DejaVuSans-30"/>
       <use xlink:href="#DejaVuSans-2e" x="63.623047"/>
       <use xlink:href="#DejaVuSans-36" x="95.410156"/>
      </g>
     </g>
    </g>
    <g id="ytick_6">
     <g id="line2d_6">
      <g>
       <use xlink:href="#mf79024ab14" x="43.78125" y="163.623797" style="stroke: #000000; stroke-width: 0.8"/>
      </g>
     </g>
     <g id="text_6">
      <!-- 0.7 -->
      <g transform="translate(20.878125 167.423016) scale(0.1 -0.1)">
       <defs>
        <path id="DejaVuSans-37" d="M 525 4666 
L 3525 4666 
L 3525 4397 
L 1831 0 
L 1172 0 
L 2766 4134 
L 525 4134 
L 525 4666 
z
" transform="scale(0.015625)"/>
       </defs>
       <use xlink:href="#DejaVuSans-30"/>
       <use xlink:href="#DejaVuSans-2e" x="63.623047"/>
       <use xlink:href="#DejaVuSans-37" x="95.410156"/>
      </g>
     </g>
    </g>
    <g id="ytick_7">
     <g id="line2d_7">
      <g>
       <use xlink:href="#mf79024ab14" x="43.78125" y="120.898826" style="stroke: #000000; stroke-width: 0.8"/>
      </g>
     </g>
     <g id="text_7">
      <!-- 0.8 -->
      <g transform="translate(20.878125 124.698045) scale(0.1 -0.1)">
       <defs>
        <path id="DejaVuSans-38" d="M 2034 2216 
Q 1584 2216 1326 1975 
Q 1069 1734 1069 1313 
Q 1069 891 1326 650 
Q 1584 409 2034 409 
Q 2484 409 2743 651 
Q 3003 894 3003 1313 
Q 3003 1734 2745 1975 
Q 2488 2216 2034 2216 
z
M 1403 2484 
Q 997 2584 770 2862 
Q 544 3141 544 3541 
Q 544 4100 942 4425 
Q 1341 4750 2034 4750 
Q 2731 4750 3128 4425 
Q 3525 4100 3525 3541 
Q 3525 3141 3298 2862 
Q 3072 2584 2669 2484 
Q 3125 2378 3379 2068 
Q 3634 1759 3634 1313 
Q 3634 634 3220 271 
Q 2806 -91 2034 -91 
Q 1263 -91 848 271 
Q 434 634 434 1313 
Q 434 1759 690 2068 
Q 947 2378 1403 2484 
z
M 1172 3481 
Q 1172 3119 1398 2916 
Q 1625 2713 2034 2713 
Q 2441 2713 2670 2916 
Q 2900 3119 2900 3481 
Q 2900 3844 2670 4047 
Q 2441 4250 2034 4250 
Q 1625 4250 1398 4047 
Q 1172 3844 1172 3481 
z
" transform="scale(0.015625)"/>
       </defs>
       <use xlink:href="#DejaVuSans-30"/>
       <use xlink:href="#DejaVuSans-2e" x="63.623047"/>
       <use xlink:href="#DejaVuSans-38" x="95.410156"/>
      </g>
     </g>
    </g>
    <g id="ytick_8">
     <g id="line2d_8">
      <g>
       <use xlink:href="#mf79024ab14" x="43.78125" y="78.173855" style="stroke: #000000; stroke-width: 0.8"/>
      </g>
     </g>
     <g id="text_8">
      <!-- 0.9 -->
      <g transform="translate(20.878125 81.973074) scale(0.1 -0.1)">
       <defs>
        <path id="DejaVuSans-39" d="M 703 97 
L 703 672 
Q 941 559 1184 500 
Q 1428 441 1663 441 
Q 2288 441 2617 861 
Q 2947 1281 2994 2138 
Q 2813 1869 2534 1725 
Q 2256 1581 1919 1581 
Q 1219 1581 811 2004 
Q 403 2428 403 3163 
Q 403 3881 828 4315 
Q 1253 4750 1959 4750 
Q 2769 4750 3195 4129 
Q 3622 3509 3622 2328 
Q 3622 1225 3098 567 
Q 2575 -91 1691 -91 
Q 1453 -91 1209 -44 
Q 966 3 703 97 
z
M 1959 2075 
Q 2384 2075 2632 2365 
Q 2881 2656 2881 3163 
Q 2881 3666 2632 3958 
Q 2384 4250 1959 4250 
Q 1534 4250 1286 3958 
Q 1038 3666 1038 3163 
Q 1038 2656 1286 2365 
Q 1534 2075 1959 2075 
z
" transform="scale(0.015625)"/>
       </defs>
       <use xlink:href="#DejaVuSans-30"/>
       <use xlink:href="#DejaVuSans-2e" x="63.623047"/>
       <use xlink:href="#DejaVuSans-39" x="95.410156"/>
      </g>
     </g>
    </g>
    <g id="text_9">
     <!-- Mapping Percentage -->
     <g transform="translate(14.798438 285.290312) rotate(-90) scale(0.1 -0.1)">
      <defs>
       <path id="DejaVuSans-4d" d="M 628 4666 
L 1569 4666 
L 2759 1491 
L 3956 4666 
L 4897 4666 
L 4897 0 
L 4281 0 
L 4281 4097 
L 3078 897 
L 2444 897 
L 1241 4097 
L 1241 0 
L 628 0 
L 628 4666 
z
" transform="scale(0.015625)"/>
       <path id="DejaVuSans-61" d="M 2194 1759 
Q 1497 1759 1228 1600 
Q 959 1441 959 1056 
Q 959 750 1161 570 
Q 1363 391 1709 391 
Q 2188 391 2477 730 
Q 2766 1069 2766 1631 
L 2766 1759 
L 2194 1759 
z
M 3341 1997 
L 3341 0 
L 2766 0 
L 2766 531 
Q 2569 213 2275 61 
Q 1981 -91 1556 -91 
Q 1019 -91 701 211 
Q 384 513 384 1019 
Q 384 1609 779 1909 
Q 1175 2209 1959 2209 
L 2766 2209 
L 2766 2266 
Q 2766 2663 2505 2880 
Q 2244 3097 1772 3097 
Q 1472 3097 1187 3025 
Q 903 2953 641 2809 
L 641 3341 
Q 956 3463 1253 3523 
Q 1550 3584 1831 3584 
Q 2591 3584 2966 3190 
Q 3341 2797 3341 1997 
z
" transform="scale(0.015625)"/>
       <path id="DejaVuSans-70" d="M 1159 525 
L 1159 -1331 
L 581 -1331 
L 581 3500 
L 1159 3500 
L 1159 2969 
Q 1341 3281 1617 3432 
Q 1894 3584 2278 3584 
Q 2916 3584 3314 3078 
Q 3713 2572 3713 1747 
Q 3713 922 3314 415 
Q 2916 -91 2278 -91 
Q 1894 -91 1617 61 
Q 1341 213 1159 525 
z
M 3116 1747 
Q 3116 2381 2855 2742 
Q 2594 3103 2138 3103 
Q 1681 3103 1420 2742 
Q 1159 2381 1159 1747 
Q 1159 1113 1420 752 
Q 1681 391 2138 391 
Q 2594 391 2855 752 
Q 3116 1113 3116 1747 
z
" transform="scale(0.015625)"/>
       <path id="DejaVuSans-69" d="M 603 3500 
L 1178 3500 
L 1178 0 
L 603 0 
L 603 3500 
z
M 603 4863 
L 1178 4863 
L 1178 4134 
L 603 4134 
L 603 4863 
z
" transform="scale(0.015625)"/>
       <path id="DejaVuSans-6e" d="M 3513 2113 
L 3513 0 
L 2938 0 
L 2938 2094 
Q 2938 2591 2744 2837 
Q 2550 3084 2163 3084 
Q 1697 3084 1428 2787 
Q 1159 2491 1159 1978 
L 1159 0 
L 581 0 
L 581 3500 
L 1159 3500 
L 1159 2956 
Q 1366 3272 1645 3428 
Q 1925 3584 2291 3584 
Q 2894 3584 3203 3211 
Q 3513 2838 3513 2113 
z
" transform="scale(0.015625)"/>
       <path id="DejaVuSans-67" d="M 2906 1791 
Q 2906 2416 2648 2759 
Q 2391 3103 1925 3103 
Q 1463 3103 1205 2759 
Q 947 2416 947 1791 
Q 947 1169 1205 825 
Q 1463 481 1925 481 
Q 2391 481 2648 825 
Q 2906 1169 2906 1791 
z
M 3481 434 
Q 3481 -459 3084 -895 
Q 2688 -1331 1869 -1331 
Q 1566 -1331 1297 -1286 
Q 1028 -1241 775 -1147 
L 775 -588 
Q 1028 -725 1275 -790 
Q 1522 -856 1778 -856 
Q 2344 -856 2625 -561 
Q 2906 -266 2906 331 
L 2906 616 
Q 2728 306 2450 153 
Q 2172 0 1784 0 
Q 1141 0 747 490 
Q 353 981 353 1791 
Q 353 2603 747 3093 
Q 1141 3584 1784 3584 
Q 2172 3584 2450 3431 
Q 2728 3278 2906 2969 
L 2906 3500 
L 3481 3500 
L 3481 434 
z
" transform="scale(0.015625)"/>
       <path id="DejaVuSans-20" transform="scale(0.015625)"/>
       <path id="DejaVuSans-50" d="M 1259 4147 
L 1259 2394 
L 2053 2394 
Q 2494 2394 2734 2622 
Q 2975 2850 2975 3272 
Q 2975 3691 2734 3919 
Q 2494 4147 2053 4147 
L 1259 4147 
z
M 628 4666 
L 2053 4666 
Q 2838 4666 3239 4311 
Q 3641 3956 3641 3272 
Q 3641 2581 3239 2228 
Q 2838 1875 2053 1875 
L 1259 1875 
L 1259 0 
L 628 0 
L 628 4666 
z
" transform="scale(0.015625)"/>
       <path id="DejaVuSans-65" d="M 3597 1894 
L 3597 1613 
L 953 1613 
Q 991 1019 1311 708 
Q 1631 397 2203 397 
Q 2534 397 2845 478 
Q 3156 559 3463 722 
L 3463 178 
Q 3153 47 2828 -22 
Q 2503 -91 2169 -91 
Q 1331 -91 842 396 
Q 353 884 353 1716 
Q 353 2575 817 3079 
Q 1281 3584 2069 3584 
Q 2775 3584 3186 3129 
Q 3597 2675 3597 1894 
z
M 3022 2063 
Q 3016 2534 2758 2815 
Q 2500 3097 2075 3097 
Q 1594 3097 1305 2825 
Q 1016 2553 972 2059 
L 3022 2063 
z
" transform="scale(0.015625)"/>
       <path id="DejaVuSans-72" d="M 2631 2963 
Q 2534 3019 2420 3045 
Q 2306 3072 2169 3072 
Q 1681 3072 1420 2755 
Q 1159 2438 1159 1844 
L 1159 0 
L 581 0 
L 581 3500 
L 1159 3500 
L 1159 2956 
Q 1341 3275 1631 3429 
Q 1922 3584 2338 3584 
Q 2397 3584 2469 3576 
Q 2541 3569 2628 3553 
L 2631 2963 
z
" transform="scale(0.015625)"/>
       <path id="DejaVuSans-63" d="M 3122 3366 
L 3122 2828 
Q 2878 2963 2633 3030 
Q 2388 3097 2138 3097 
Q 1578 3097 1268 2742 
Q 959 2388 959 1747 
Q 959 1106 1268 751 
Q 1578 397 2138 397 
Q 2388 397 2633 464 
Q 2878 531 3122 666 
L 3122 134 
Q 2881 22 2623 -34 
Q 2366 -91 2075 -91 
Q 1284 -91 818 406 
Q 353 903 353 1747 
Q 353 2603 823 3093 
Q 1294 3584 2113 3584 
Q 2378 3584 2631 3529 
Q 2884 3475 3122 3366 
z
" transform="scale(0.015625)"/>
       <path id="DejaVuSans-74" d="M 1172 4494 
L 1172 3500 
L 2356 3500 
L 2356 3053 
L 1172 3053 
L 1172 1153 
Q 1172 725 1289 603 
Q 1406 481 1766 481 
L 2356 481 
L 2356 0 
L 1766 0 
Q 1100 0 847 248 
Q 594 497 594 1153 
L 594 3053 
L 172 3053 
L 172 3500 
L 594 3500 
L 594 4494 
L 1172 4494 
z
" transform="scale(0.015625)"/>
      </defs>
      <use xlink:href="#DejaVuSans-4d"/>
      <use xlink:href="#DejaVuSans-61" x="86.279297"/>
      <use xlink:href="#DejaVuSans-70" x="147.558594"/>
      <use xlink:href="#DejaVuSans-70" x="211.035156"/>
      <use xlink:href="#DejaVuSans-69" x="274.511719"/>
      <use xlink:href="#DejaVuSans-6e" x="302.294922"/>
      <use xlink:href="#DejaVuSans-67" x="365.673828"/>
      <use xlink:href="#DejaVuSans-20" x="429.150391"/>
      <use xlink:href="#DejaVuSans-50" x="460.9375"/>
      <use xlink:href="#DejaVuSans-65" x="517.615234"/>
      <use xlink:href="#DejaVuSans-72" x="579.138672"/>
      <use xlink:href="#DejaVuSans-63" x="618.001953"/>
      <use xlink:href="#DejaVuSans-65" x="672.982422"/>
      <use xlink:href="#DejaVuSans-6e" x="734.505859"/>
      <use xlink:href="#DejaVuSans-74" x="797.884766"/>
      <use xlink:href="#DejaVuSans-61" x="837.09375"/>
      <use xlink:href="#DejaVuSans-67" x="898.373047"/>
      <use xlink:href="#DejaVuSans-65" x="961.849609"/>
     </g>
    </g>
   </g>
   <g id="patch_3">
    <path d="M 47.313361 99.536341 
L 75.57025 99.536341 
L 75.57025 78.173855 
L 47.313361 78.173855 
L 47.313361 99.536341 
z
" clip-path="url(#p257d8c3c26)" style="fill: #548ca3"/>
   </g>
   <g id="line2d_9">
    <path d="M 61.441806 99.536341 
L 61.441806 129.44382 
" clip-path="url(#p257d8c3c26)" style="fill: none; stroke: #363636"/>
   </g>
   <g id="line2d_10">
    <path d="M 61.441806 78.173855 
L 61.441806 65.356364 
" clip-path="url(#p257d8c3c26)" style="fill: none; stroke: #363636"/>
   </g>
   <g id="line2d_11">
    <path d="M 54.377583 129.44382 
L 68.506028 129.44382 
" clip-path="url(#p257d8c3c26)" style="fill: none; stroke: #363636; stroke-linecap: square"/>
   </g>
   <g id="line2d_12">
    <path d="M 54.377583 65.356364 
L 68.506028 65.356364 
" clip-path="url(#p257d8c3c26)" style="fill: none; stroke: #363636; stroke-linecap: square"/>
   </g>
   <g id="line2d_13">
    <defs>
     <path id="m6a6085b6d4" d="M 0 2.5 
C 0.663008 2.5 1.29895 2.236584 1.767767 1.767767 
C 2.236584 1.29895 2.5 0.663008 2.5 0 
C 2.5 -0.663008 2.236584 -1.29895 1.767767 -1.767767 
C 1.29895 -2.236584 0.663008 -2.5 0 -2.5 
C -0.663008 -2.5 -1.29895 -2.236584 -1.767767 -1.767767 
C -2.236584 -1.29895 -2.5 -0.663008 -2.5 0 
C -2.5 0.663008 -2.236584 1.29895 -1.767767 1.767767 
C -1.29895 2.236584 -0.663008 2.5 0 2.5 
z
" style="stroke: #363636"/>
    </defs>
    <g clip-path="url(#p257d8c3c26)">
     <use xlink:href="#m6a6085b6d4" x="61.441806" y="253.346237" style="fill-opacity: 0; stroke: #363636"/>
     <use xlink:href="#m6a6085b6d4" x="61.441806" y="159.3513" style="fill-opacity: 0; stroke: #363636"/>
     <use xlink:href="#m6a6085b6d4" x="61.441806" y="155.078803" style="fill-opacity: 0; stroke: #363636"/>
     <use xlink:href="#m6a6085b6d4" x="61.441806" y="150.806306" style="fill-opacity: 0; stroke: #363636"/>
     <use xlink:href="#m6a6085b6d4" x="61.441806" y="167.896295" style="fill-opacity: 0; stroke: #363636"/>
     <use xlink:href="#m6a6085b6d4" x="61.441806" y="150.806306" style="fill-opacity: 0; stroke: #363636"/>
     <use xlink:href="#m6a6085b6d4" x="61.441806" y="137.988815" style="fill-opacity: 0; stroke: #363636"/>
    </g>
   </g>
   <g id="patch_4">
    <path d="M 82.634472 116.626329 
L 110.891361 116.626329 
L 110.891361 95.263843 
L 82.634472 95.263843 
L 82.634472 116.626329 
z
" clip-path="url(#p257d8c3c26)" style="fill: #c96559"/>
   </g>
   <g id="line2d_14">
    <path d="M 96.762917 116.626329 
L 96.762917 142.261312 
" clip-path="url(#p257d8c3c26)" style="fill: none; stroke: #363636"/>
   </g>
   <g id="line2d_15">
    <path d="M 96.762917 95.263843 
L 96.762917 82.446352 
" clip-path="url(#p257d8c3c26)" style="fill: none; stroke: #363636"/>
   </g>
   <g id="line2d_16">
    <path d="M 89.698694 142.261312 
L 103.827139 142.261312 
" clip-path="url(#p257d8c3c26)" style="fill: none; stroke: #363636; stroke-linecap: square"/>
   </g>
   <g id="line2d_17">
    <path d="M 89.698694 82.446352 
L 103.827139 82.446352 
" clip-path="url(#p257d8c3c26)" style="fill: none; stroke: #363636; stroke-linecap: square"/>
   </g>
   <g id="line2d_18">
    <g clip-path="url(#p257d8c3c26)">
     <use xlink:href="#m6a6085b6d4" x="96.762917" y="266.163728" style="fill-opacity: 0; stroke: #363636"/>
     <use xlink:href="#m6a6085b6d4" x="96.762917" y="172.168792" style="fill-opacity: 0; stroke: #363636"/>
     <use xlink:href="#m6a6085b6d4" x="96.762917" y="176.441289" style="fill-opacity: 0; stroke: #363636"/>
     <use xlink:href="#m6a6085b6d4" x="96.762917" y="167.896295" style="fill-opacity: 0; stroke: #363636"/>
     <use xlink:href="#m6a6085b6d4" x="96.762917" y="180.713786" style="fill-opacity: 0; stroke: #363636"/>
     <use xlink:href="#m6a6085b6d4" x="96.762917" y="163.623797" style="fill-opacity: 0; stroke: #363636"/>
     <use xlink:href="#m6a6085b6d4" x="96.762917" y="150.806306" style="fill-opacity: 0; stroke: #363636"/>
    </g>
   </g>
   <g id="patch_5">
    <path d="M 117.955583 116.626329 
L 146.212472 116.626329 
L 146.212472 95.263843 
L 117.955583 95.263843 
L 117.955583 116.626329 
z
" clip-path="url(#p257d8c3c26)" style="fill: #7e3b37"/>
   </g>
   <g id="line2d_19">
    <path d="M 132.084028 116.626329 
L 132.084028 142.261312 
" clip-path="url(#p257d8c3c26)" style="fill: none; stroke: #363636"/>
   </g>
   <g id="line2d_20">
    <path d="M 132.084028 95.263843 
L 132.084028 82.446352 
" clip-path="url(#p257d8c3c26)" style="fill: none; stroke: #363636"/>
   </g>
   <g id="line2d_21">
    <path d="M 125.019806 142.261312 
L 139.14825 142.261312 
" clip-path="url(#p257d8c3c26)" style="fill: none; stroke: #363636; stroke-linecap: square"/>
   </g>
   <g id="line2d_22">
    <path d="M 125.019806 82.446352 
L 139.14825 82.446352 
" clip-path="url(#p257d8c3c26)" style="fill: none; stroke: #363636; stroke-linecap: square"/>
   </g>
   <g id="line2d_23">
    <g clip-path="url(#p257d8c3c26)">
     <use xlink:href="#m6a6085b6d4" x="132.084028" y="266.163728" style="fill-opacity: 0; stroke: #363636"/>
     <use xlink:href="#m6a6085b6d4" x="132.084028" y="172.168792" style="fill-opacity: 0; stroke: #363636"/>
     <use xlink:href="#m6a6085b6d4" x="132.084028" y="176.441289" style="fill-opacity: 0; stroke: #363636"/>
     <use xlink:href="#m6a6085b6d4" x="132.084028" y="167.896295" style="fill-opacity: 0; stroke: #363636"/>
     <use xlink:href="#m6a6085b6d4" x="132.084028" y="180.713786" style="fill-opacity: 0; stroke: #363636"/>
     <use xlink:href="#m6a6085b6d4" x="132.084028" y="163.623797" style="fill-opacity: 0; stroke: #363636"/>
     <use xlink:href="#m6a6085b6d4" x="132.084028" y="150.806306" style="fill-opacity: 0; stroke: #363636"/>
    </g>
   </g>
   <g id="patch_6">
    <path d="M 153.276694 116.626329 
L 181.533583 116.626329 
L 181.533583 95.263843 
L 153.276694 95.263843 
L 153.276694 116.626329 
z
" clip-path="url(#p257d8c3c26)" style="fill: #ebc07f"/>
   </g>
   <g id="line2d_24">
    <path d="M 167.405139 116.626329 
L 167.405139 146.533809 
" clip-path="url(#p257d8c3c26)" style="fill: none; stroke: #363636"/>
   </g>
   <g id="line2d_25">
    <path d="M 167.405139 95.263843 
L 167.405139 78.173855 
" clip-path="url(#p257d8c3c26)" style="fill: none; stroke: #363636"/>
   </g>
   <g id="line2d_26">
    <path d="M 160.340917 146.533809 
L 174.469361 146.533809 
" clip-path="url(#p257d8c3c26)" style="fill: none; stroke: #363636; stroke-linecap: square"/>
   </g>
   <g id="line2d_27">
    <path d="M 160.340917 78.173855 
L 174.469361 78.173855 
" clip-path="url(#p257d8c3c26)" style="fill: none; stroke: #363636; stroke-linecap: square"/>
   </g>
   <g id="line2d_28">
    <g clip-path="url(#p257d8c3c26)">
     <use xlink:href="#m6a6085b6d4" x="167.405139" y="266.163728" style="fill-opacity: 0; stroke: #363636"/>
     <use xlink:href="#m6a6085b6d4" x="167.405139" y="172.168792" style="fill-opacity: 0; stroke: #363636"/>
     <use xlink:href="#m6a6085b6d4" x="167.405139" y="176.441289" style="fill-opacity: 0; stroke: #363636"/>
     <use xlink:href="#m6a6085b6d4" x="167.405139" y="163.623797" style="fill-opacity: 0; stroke: #363636"/>
     <use xlink:href="#m6a6085b6d4" x="167.405139" y="180.713786" style="fill-opacity: 0; stroke: #363636"/>
     <use xlink:href="#m6a6085b6d4" x="167.405139" y="163.623797" style="fill-opacity: 0; stroke: #363636"/>
    </g>
   </g>
   <g id="patch_7">
    <path d="M 188.597806 334.523682 
L 216.854694 334.523682 
L 216.854694 304.616203 
L 188.597806 304.616203 
L 188.597806 334.523682 
z
" clip-path="url(#p257d8c3c26)" style="fill: #98657c"/>
   </g>
   <g id="line2d_29">
    <path d="M 202.72625 334.523682 
L 202.72625 372.976157 
" clip-path="url(#p257d8c3c26)" style="fill: none; stroke: #363636"/>
   </g>
   <g id="line2d_30">
    <path d="M 202.72625 304.616203 
L 202.72625 270.436226 
" clip-path="url(#p257d8c3c26)" style="fill: none; stroke: #363636"/>
   </g>
   <g id="line2d_31">
    <path d="M 195.662028 372.976157 
L 209.790472 372.976157 
" clip-path="url(#p257d8c3c26)" style="fill: none; stroke: #363636; stroke-linecap: square"/>
   </g>
   <g id="line2d_32">
    <path d="M 195.662028 270.436226 
L 209.790472 270.436226 
" clip-path="url(#p257d8c3c26)" style="fill: none; stroke: #363636; stroke-linecap: square"/>
   </g>
   <g id="line2d_33">
    <g clip-path="url(#p257d8c3c26)">
     <use xlink:href="#m6a6085b6d4" x="202.72625" y="390.066145" style="fill-opacity: 0; stroke: #363636"/>
    </g>
   </g>
   <g id="patch_8">
    <path d="M 223.918917 361.226789 
L 252.175806 361.226789 
L 252.175806 337.728055 
L 223.918917 337.728055 
L 223.918917 361.226789 
z
" clip-path="url(#p257d8c3c26)" style="fill: #66957e"/>
   </g>
   <g id="line2d_34">
    <path d="M 238.047361 361.226789 
L 238.047361 394.338642 
" clip-path="url(#p257d8c3c26)" style="fill: none; stroke: #363636"/>
   </g>
   <g id="line2d_35">
    <path d="M 238.047361 337.728055 
L 238.047361 308.8887 
" clip-path="url(#p257d8c3c26)" style="fill: none; stroke: #363636"/>
   </g>
   <g id="line2d_36">
    <path d="M 230.983139 394.338642 
L 245.111583 394.338642 
" clip-path="url(#p257d8c3c26)" style="fill: none; stroke: #363636; stroke-linecap: square"/>
   </g>
   <g id="line2d_37">
    <path d="M 230.983139 308.8887 
L 245.111583 308.8887 
" clip-path="url(#p257d8c3c26)" style="fill: none; stroke: #363636; stroke-linecap: square"/>
   </g>
   <g id="line2d_38">
    <g clip-path="url(#p257d8c3c26)">
     <use xlink:href="#m6a6085b6d4" x="238.047361" y="402.883636" style="fill-opacity: 0; stroke: #363636"/>
    </g>
   </g>
   <g id="line2d_39">
    <path d="M 47.313361 86.718849 
L 75.57025 86.718849 
" clip-path="url(#p257d8c3c26)" style="fill: none; stroke: #363636"/>
   </g>
   <g id="line2d_40">
    <path d="M 82.634472 103.808838 
L 110.891361 103.808838 
" clip-path="url(#p257d8c3c26)" style="fill: none; stroke: #363636"/>
   </g>
   <g id="line2d_41">
    <path d="M 117.955583 103.808838 
L 146.212472 103.808838 
" clip-path="url(#p257d8c3c26)" style="fill: none; stroke: #363636"/>
   </g>
   <g id="line2d_42">
    <path d="M 153.276694 103.808838 
L 181.533583 103.808838 
" clip-path="url(#p257d8c3c26)" style="fill: none; stroke: #363636"/>
   </g>
   <g id="line2d_43">
    <path d="M 188.597806 317.433694 
L 216.854694 317.433694 
" clip-path="url(#p257d8c3c26)" style="fill: none; stroke: #363636"/>
   </g>
   <g id="line2d_44">
    <path d="M 223.918917 349.477422 
L 252.175806 349.477422 
" clip-path="url(#p257d8c3c26)" style="fill: none; stroke: #363636"/>
   </g>
   <g id="patch_9">
    <path d="M 43.78125 419.76 
L 43.78125 48.48 
" style="fill: none; stroke: #000000; stroke-width: 0.8; stroke-linejoin: miter; stroke-linecap: square"/>
   </g>
   <g id="patch_10">
    <path d="M 43.78125 419.76 
L 255.707917 419.76 
" style="fill: none; stroke: #000000; stroke-width: 0.8; stroke-linejoin: miter; stroke-linecap: square"/>
   </g>
   <g id="text_10">
    <!-- POP -->
    <g transform="translate(139.778958 42.48) scale(0.1 -0.1)">
     <defs>
      <path id="DejaVuSans-4f" d="M 2522 4238 
Q 1834 4238 1429 3725 
Q 1025 3213 1025 2328 
Q 1025 1447 1429 934 
Q 1834 422 2522 422 
Q 3209 422 3611 934 
Q 4013 1447 4013 2328 
Q 4013 3213 3611 3725 
Q 3209 4238 2522 4238 
z
M 2522 4750 
Q 3503 4750 4090 4092 
Q 4678 3434 4678 2328 
Q 4678 1225 4090 567 
Q 3503 -91 2522 -91 
Q 1538 -91 948 565 
Q 359 1222 359 2328 
Q 359 3434 948 4092 
Q 1538 4750 2522 4750 
z
" transform="scale(0.015625)"/>
     </defs>
     <use xlink:href="#DejaVuSans-50"/>
     <use xlink:href="#DejaVuSans-4f" x="60.302734"/>
     <use xlink:href="#DejaVuSans-50" x="139.013672"/>
    </g>
   </g>
  </g>
  <g id="axes_2">
   <g id="patch_11">
    <path d="M 289.347917 419.76 
L 501.274583 419.76 
L 501.274583 48.48 
L 289.347917 48.48 
z
" style="fill: #ffffff"/>
   </g>
   <g id="matplotlib.axis_3">
    <g id="xtick_7"/>
    <g id="xtick_8"/>
    <g id="xtick_9"/>
    <g id="xtick_10"/>
    <g id="xtick_11"/>
    <g id="xtick_12"/>
   </g>
   <g id="matplotlib.axis_4">
    <g id="ytick_9">
     <g id="line2d_45">
      <g>
       <use xlink:href="#mf79024ab14" x="289.347917" y="412.130959" style="stroke: #000000; stroke-width: 0.8"/>
      </g>
     </g>
     <g id="text_11">
      <!-- 0.2 -->
      <g transform="translate(266.444792 415.930178) scale(0.1 -0.1)">
       <use xlink:href="#DejaVuSans-30"/>
       <use xlink:href="#DejaVuSans-2e" x="63.623047"/>
       <use xlink:href="#DejaVuSans-32" x="95.410156"/>
      </g>
     </g>
    </g>
    <g id="ytick_10">
     <g id="line2d_46">
      <g>
       <use xlink:href="#mf79024ab14" x="289.347917" y="365.894346" style="stroke: #000000; stroke-width: 0.8"/>
      </g>
     </g>
     <g id="text_12">
      <!-- 0.3 -->
      <g transform="translate(266.444792 369.693565) scale(0.1 -0.1)">
       <use xlink:href="#DejaVuSans-30"/>
       <use xlink:href="#DejaVuSans-2e" x="63.623047"/>
       <use xlink:href="#DejaVuSans-33" x="95.410156"/>
      </g>
     </g>
    </g>
    <g id="ytick_11">
     <g id="line2d_47">
      <g>
       <use xlink:href="#mf79024ab14" x="289.347917" y="319.657733" style="stroke: #000000; stroke-width: 0.8"/>
      </g>
     </g>
     <g id="text_13">
      <!-- 0.4 -->
      <g transform="translate(266.444792 323.456952) scale(0.1 -0.1)">
       <use xlink:href="#DejaVuSans-30"/>
       <use xlink:href="#DejaVuSans-2e" x="63.623047"/>
       <use xlink:href="#DejaVuSans-34" x="95.410156"/>
      </g>
     </g>
    </g>
    <g id="ytick_12">
     <g id="line2d_48">
      <g>
       <use xlink:href="#mf79024ab14" x="289.347917" y="273.421121" style="stroke: #000000; stroke-width: 0.8"/>
      </g>
     </g>
     <g id="text_14">
      <!-- 0.5 -->
      <g transform="translate(266.444792 277.22034) scale(0.1 -0.1)">
       <use xlink:href="#DejaVuSans-30"/>
       <use xlink:href="#DejaVuSans-2e" x="63.623047"/>
       <use xlink:href="#DejaVuSans-35" x="95.410156"/>
      </g>
     </g>
    </g>
    <g id="ytick_13">
     <g id="line2d_49">
      <g>
       <use xlink:href="#mf79024ab14" x="289.347917" y="227.184508" style="stroke: #000000; stroke-width: 0.8"/>
      </g>
     </g>
     <g id="text_15">
      <!-- 0.6 -->
      <g transform="translate(266.444792 230.983727) scale(0.1 -0.1)">
       <use xlink:href="#DejaVuSans-30"/>
       <use xlink:href="#DejaVuSans-2e" x="63.623047"/>
       <use xlink:href="#DejaVuSans-36" x="95.410156"/>
      </g>
     </g>
    </g>
    <g id="ytick_14">
     <g id="line2d_50">
      <g>
       <use xlink:href="#mf79024ab14" x="289.347917" y="180.947895" style="stroke: #000000; stroke-width: 0.8"/>
      </g>
     </g>
     <g id="text_16">
      <!-- 0.7 -->
      <g transform="translate(266.444792 184.747114) scale(0.1 -0.1)">
       <use xlink:href="#DejaVuSans-30"/>
       <use xlink:href="#DejaVuSans-2e" x="63.623047"/>
       <use xlink:href="#DejaVuSans-37" x="95.410156"/>
      </g>
     </g>
    </g>
    <g id="ytick_15">
     <g id="line2d_51">
      <g>
       <use xlink:href="#mf79024ab14" x="289.347917" y="134.711283" style="stroke: #000000; stroke-width: 0.8"/>
      </g>
     </g>
     <g id="text_17">
      <!-- 0.8 -->
      <g transform="translate(266.444792 138.510501) scale(0.1 -0.1)">
       <use xlink:href="#DejaVuSans-30"/>
       <use xlink:href="#DejaVuSans-2e" x="63.623047"/>
       <use xlink:href="#DejaVuSans-38" x="95.410156"/>
      </g>
     </g>
    </g>
    <g id="ytick_16">
     <g id="line2d_52">
      <g>
       <use xlink:href="#mf79024ab14" x="289.347917" y="88.47467" style="stroke: #000000; stroke-width: 0.8"/>
      </g>
     </g>
     <g id="text_18">
      <!-- 0.9 -->
      <g transform="translate(266.444792 92.273889) scale(0.1 -0.1)">
       <use xlink:href="#DejaVuSans-30"/>
       <use xlink:href="#DejaVuSans-2e" x="63.623047"/>
       <use xlink:href="#DejaVuSans-39" x="95.410156"/>
      </g>
     </g>
    </g>
   </g>
   <g id="patch_12">
    <path d="M 292.880028 106.969315 
L 321.136917 106.969315 
L 321.136917 79.227347 
L 292.880028 79.227347 
L 292.880028 106.969315 
z
" clip-path="url(#pd06d5145ef)" style="fill: #548ca3"/>
   </g>
   <g id="line2d_53">
    <path d="M 307.008472 106.969315 
L 307.008472 139.334944 
" clip-path="url(#pd06d5145ef)" style="fill: none; stroke: #363636"/>
   </g>
   <g id="line2d_54">
    <path d="M 307.008472 79.227347 
L 307.008472 65.356364 
" clip-path="url(#pd06d5145ef)" style="fill: none; stroke: #363636"/>
   </g>
   <g id="line2d_55">
    <path d="M 299.94425 139.334944 
L 314.072694 139.334944 
" clip-path="url(#pd06d5145ef)" style="fill: none; stroke: #363636; stroke-linecap: square"/>
   </g>
   <g id="line2d_56">
    <path d="M 299.94425 65.356364 
L 314.072694 65.356364 
" clip-path="url(#pd06d5145ef)" style="fill: none; stroke: #363636; stroke-linecap: square"/>
   </g>
   <g id="line2d_57">
    <g clip-path="url(#pd06d5145ef)">
     <use xlink:href="#m6a6085b6d4" x="307.008472" y="167.076912" style="fill-opacity: 0; stroke: #363636"/>
     <use xlink:href="#m6a6085b6d4" x="307.008472" y="190.195218" style="fill-opacity: 0; stroke: #363636"/>
    </g>
   </g>
   <g id="patch_13">
    <path d="M 328.201139 120.840299 
L 356.458028 120.840299 
L 356.458028 93.098331 
L 328.201139 93.098331 
L 328.201139 120.840299 
z
" clip-path="url(#pd06d5145ef)" style="fill: #c96559"/>
   </g>
   <g id="line2d_58">
    <path d="M 342.329583 120.840299 
L 342.329583 153.205928 
" clip-path="url(#pd06d5145ef)" style="fill: none; stroke: #363636"/>
   </g>
   <g id="line2d_59">
    <path d="M 342.329583 93.098331 
L 342.329583 83.851009 
" clip-path="url(#pd06d5145ef)" style="fill: none; stroke: #363636"/>
   </g>
   <g id="line2d_60">
    <path d="M 335.265361 153.205928 
L 349.393806 153.205928 
" clip-path="url(#pd06d5145ef)" style="fill: none; stroke: #363636; stroke-linecap: square"/>
   </g>
   <g id="line2d_61">
    <path d="M 335.265361 83.851009 
L 349.393806 83.851009 
" clip-path="url(#pd06d5145ef)" style="fill: none; stroke: #363636; stroke-linecap: square"/>
   </g>
   <g id="line2d_62">
    <g clip-path="url(#pd06d5145ef)">
     <use xlink:href="#m6a6085b6d4" x="342.329583" y="176.324234" style="fill-opacity: 0; stroke: #363636"/>
     <use xlink:href="#m6a6085b6d4" x="342.329583" y="199.44254" style="fill-opacity: 0; stroke: #363636"/>
    </g>
   </g>
   <g id="patch_14">
    <path d="M 363.52225 120.840299 
L 391.779139 120.840299 
L 391.779139 93.098331 
L 363.52225 93.098331 
L 363.52225 120.840299 
z
" clip-path="url(#pd06d5145ef)" style="fill: #7e3b37"/>
   </g>
   <g id="line2d_63">
    <path d="M 377.650694 120.840299 
L 377.650694 153.205928 
" clip-path="url(#pd06d5145ef)" style="fill: none; stroke: #363636"/>
   </g>
   <g id="line2d_64">
    <path d="M 377.650694 93.098331 
L 377.650694 83.851009 
" clip-path="url(#pd06d5145ef)" style="fill: none; stroke: #363636"/>
   </g>
   <g id="line2d_65">
    <path d="M 370.586472 153.205928 
L 384.714917 153.205928 
" clip-path="url(#pd06d5145ef)" style="fill: none; stroke: #363636; stroke-linecap: square"/>
   </g>
   <g id="line2d_66">
    <path d="M 370.586472 83.851009 
L 384.714917 83.851009 
" clip-path="url(#pd06d5145ef)" style="fill: none; stroke: #363636; stroke-linecap: square"/>
   </g>
   <g id="line2d_67">
    <g clip-path="url(#pd06d5145ef)">
     <use xlink:href="#m6a6085b6d4" x="377.650694" y="176.324234" style="fill-opacity: 0; stroke: #363636"/>
     <use xlink:href="#m6a6085b6d4" x="377.650694" y="199.44254" style="fill-opacity: 0; stroke: #363636"/>
    </g>
   </g>
   <g id="patch_15">
    <path d="M 398.843361 120.840299 
L 427.10025 120.840299 
L 427.10025 93.098331 
L 398.843361 93.098331 
L 398.843361 120.840299 
z
" clip-path="url(#pd06d5145ef)" style="fill: #ebc07f"/>
   </g>
   <g id="line2d_68">
    <path d="M 412.971806 120.840299 
L 412.971806 148.582267 
" clip-path="url(#pd06d5145ef)" style="fill: none; stroke: #363636"/>
   </g>
   <g id="line2d_69">
    <path d="M 412.971806 93.098331 
L 412.971806 83.851009 
" clip-path="url(#pd06d5145ef)" style="fill: none; stroke: #363636"/>
   </g>
   <g id="line2d_70">
    <path d="M 405.907583 148.582267 
L 420.036028 148.582267 
" clip-path="url(#pd06d5145ef)" style="fill: none; stroke: #363636; stroke-linecap: square"/>
   </g>
   <g id="line2d_71">
    <path d="M 405.907583 83.851009 
L 420.036028 83.851009 
" clip-path="url(#pd06d5145ef)" style="fill: none; stroke: #363636; stroke-linecap: square"/>
   </g>
   <g id="line2d_72">
    <g clip-path="url(#pd06d5145ef)">
     <use xlink:href="#m6a6085b6d4" x="412.971806" y="176.324234" style="fill-opacity: 0; stroke: #363636"/>
     <use xlink:href="#m6a6085b6d4" x="412.971806" y="199.44254" style="fill-opacity: 0; stroke: #363636"/>
    </g>
   </g>
   <g id="patch_16">
    <path d="M 434.164472 342.77604 
L 462.421361 342.77604 
L 462.421361 315.034072 
L 434.164472 315.034072 
L 434.164472 342.77604 
z
" clip-path="url(#pd06d5145ef)" style="fill: #98657c"/>
   </g>
   <g id="line2d_73">
    <path d="M 448.292917 342.77604 
L 448.292917 370.518007 
" clip-path="url(#pd06d5145ef)" style="fill: none; stroke: #363636"/>
   </g>
   <g id="line2d_74">
    <path d="M 448.292917 315.034072 
L 448.292917 282.668443 
" clip-path="url(#pd06d5145ef)" style="fill: none; stroke: #363636"/>
   </g>
   <g id="line2d_75">
    <path d="M 441.228694 370.518007 
L 455.357139 370.518007 
" clip-path="url(#pd06d5145ef)" style="fill: none; stroke: #363636; stroke-linecap: square"/>
   </g>
   <g id="line2d_76">
    <path d="M 441.228694 282.668443 
L 455.357139 282.668443 
" clip-path="url(#pd06d5145ef)" style="fill: none; stroke: #363636; stroke-linecap: square"/>
   </g>
   <g id="line2d_77"/>
   <g id="patch_17">
    <path d="M 469.485583 379.76533 
L 497.742472 379.76533 
L 497.742472 352.023362 
L 469.485583 352.023362 
L 469.485583 379.76533 
z
" clip-path="url(#pd06d5145ef)" style="fill: #66957e"/>
   </g>
   <g id="line2d_78">
    <path d="M 483.614028 379.76533 
L 483.614028 402.883636 
" clip-path="url(#pd06d5145ef)" style="fill: none; stroke: #363636"/>
   </g>
   <g id="line2d_79">
    <path d="M 483.614028 352.023362 
L 483.614028 324.281395 
" clip-path="url(#pd06d5145ef)" style="fill: none; stroke: #363636"/>
   </g>
   <g id="line2d_80">
    <path d="M 476.549806 402.883636 
L 490.67825 402.883636 
" clip-path="url(#pd06d5145ef)" style="fill: none; stroke: #363636; stroke-linecap: square"/>
   </g>
   <g id="line2d_81">
    <path d="M 476.549806 324.281395 
L 490.67825 324.281395 
" clip-path="url(#pd06d5145ef)" style="fill: none; stroke: #363636; stroke-linecap: square"/>
   </g>
   <g id="line2d_82"/>
   <g id="line2d_83">
    <path d="M 292.880028 88.47467 
L 321.136917 88.47467 
" clip-path="url(#pd06d5145ef)" style="fill: none; stroke: #363636"/>
   </g>
   <g id="line2d_84">
    <path d="M 328.201139 106.969315 
L 356.458028 106.969315 
" clip-path="url(#pd06d5145ef)" style="fill: none; stroke: #363636"/>
   </g>
   <g id="line2d_85">
    <path d="M 363.52225 106.969315 
L 391.779139 106.969315 
" clip-path="url(#pd06d5145ef)" style="fill: none; stroke: #363636"/>
   </g>
   <g id="line2d_86">
    <path d="M 398.843361 106.969315 
L 427.10025 106.969315 
" clip-path="url(#pd06d5145ef)" style="fill: none; stroke: #363636"/>
   </g>
   <g id="line2d_87">
    <path d="M 434.164472 333.528717 
L 462.421361 333.528717 
" clip-path="url(#pd06d5145ef)" style="fill: none; stroke: #363636"/>
   </g>
   <g id="line2d_88">
    <path d="M 469.485583 365.894346 
L 497.742472 365.894346 
" clip-path="url(#pd06d5145ef)" style="fill: none; stroke: #363636"/>
   </g>
   <g id="patch_18">
    <path d="M 289.347917 419.76 
L 289.347917 48.48 
" style="fill: none; stroke: #000000; stroke-width: 0.8; stroke-linejoin: miter; stroke-linecap: square"/>
   </g>
   <g id="patch_19">
    <path d="M 289.347917 419.76 
L 501.274583 419.76 
" style="fill: none; stroke: #000000; stroke-width: 0.8; stroke-linejoin: miter; stroke-linecap: square"/>
   </g>
   <g id="text_19">
    <!-- Intra-P4 -->
    <g transform="translate(375.587812 42.48) scale(0.1 -0.1)">
     <defs>
      <path id="DejaVuSans-49" d="M 628 4666 
L 1259 4666 
L 1259 0 
L 628 0 
L 628 4666 
z
" transform="scale(0.015625)"/>
      <path id="DejaVuSans-2d" d="M 313 2009 
L 1997 2009 
L 1997 1497 
L 313 1497 
L 313 2009 
z
" transform="scale(0.015625)"/>
     </defs>
     <use xlink:href="#DejaVuSans-49"/>
     <use xlink:href="#DejaVuSans-6e" x="29.492188"/>
     <use xlink:href="#DejaVuSans-74" x="92.871094"/>
     <use xlink:href="#DejaVuSans-72" x="132.080078"/>
     <use xlink:href="#DejaVuSans-61" x="173.193359"/>
     <use xlink:href="#DejaVuSans-2d" x="234.472656"/>
     <use xlink:href="#DejaVuSans-50" x="270.556641"/>
     <use xlink:href="#DejaVuSans-34" x="330.859375"/>
    </g>
   </g>
  </g>
  <g id="axes_3">
   <g id="patch_20">
    <path d="M 534.914583 419.76 
L 746.84125 419.76 
L 746.84125 48.48 
L 534.914583 48.48 
z
" style="fill: #ffffff"/>
   </g>
   <g id="patch_21">
    <path d="M 552.575139 562.094614 
L 552.575139 562.094614 
L 552.575139 562.094614 
L 552.575139 562.094614 
z
" clip-path="url(#pefe3e780b7)" style="fill: #548ca3"/>
   </g>
   <g id="patch_22">
    <path d="M 552.575139 562.094614 
L 552.575139 562.094614 
L 552.575139 562.094614 
L 552.575139 562.094614 
z
" clip-path="url(#pefe3e780b7)" style="fill: #c96559"/>
   </g>
   <g id="patch_23">
    <path d="M 552.575139 562.094614 
L 552.575139 562.094614 
L 552.575139 562.094614 
L 552.575139 562.094614 
z
" clip-path="url(#pefe3e780b7)" style="fill: #7e3b37"/>
   </g>
   <g id="patch_24">
    <path d="M 552.575139 562.094614 
L 552.575139 562.094614 
L 552.575139 562.094614 
L 552.575139 562.094614 
z
" clip-path="url(#pefe3e780b7)" style="fill: #ebc07f"/>
   </g>
   <g id="patch_25">
    <path d="M 552.575139 562.094614 
L 552.575139 562.094614 
L 552.575139 562.094614 
L 552.575139 562.094614 
z
" clip-path="url(#pefe3e780b7)" style="fill: #98657c"/>
   </g>
   <g id="patch_26">
    <path d="M 552.575139 562.094614 
L 552.575139 562.094614 
L 552.575139 562.094614 
L 552.575139 562.094614 
z
" clip-path="url(#pefe3e780b7)" style="fill: #66957e"/>
   </g>
   <g id="matplotlib.axis_5">
    <g id="xtick_13"/>
    <g id="xtick_14"/>
    <g id="xtick_15"/>
    <g id="xtick_16"/>
    <g id="xtick_17"/>
    <g id="xtick_18"/>
   </g>
   <g id="matplotlib.axis_6">
    <g id="ytick_17">
     <g id="line2d_89">
      <g>
       <use xlink:href="#mf79024ab14" x="534.914583" y="371.041441" style="stroke: #000000; stroke-width: 0.8"/>
      </g>
     </g>
     <g id="text_20">
      <!-- 0.3 -->
      <g transform="translate(512.011458 374.84066) scale(0.1 -0.1)">
       <use xlink:href="#DejaVuSans-30"/>
       <use xlink:href="#DejaVuSans-2e" x="63.623047"/>
       <use xlink:href="#DejaVuSans-33" x="95.410156"/>
      </g>
     </g>
    </g>
    <g id="ytick_18">
     <g id="line2d_90">
      <g>
       <use xlink:href="#mf79024ab14" x="534.914583" y="307.35705" style="stroke: #000000; stroke-width: 0.8"/>
      </g>
     </g>
     <g id="text_21">
      <!-- 0.4 -->
      <g transform="translate(512.011458 311.156268) scale(0.1 -0.1)">
       <use xlink:href="#DejaVuSans-30"/>
       <use xlink:href="#DejaVuSans-2e" x="63.623047"/>
       <use xlink:href="#DejaVuSans-34" x="95.410156"/>
      </g>
     </g>
    </g>
    <g id="ytick_19">
     <g id="line2d_91">
      <g>
       <use xlink:href="#mf79024ab14" x="534.914583" y="243.672659" style="stroke: #000000; stroke-width: 0.8"/>
      </g>
     </g>
     <g id="text_22">
      <!-- 0.5 -->
      <g transform="translate(512.011458 247.471877) scale(0.1 -0.1)">
       <use xlink:href="#DejaVuSans-30"/>
       <use xlink:href="#DejaVuSans-2e" x="63.623047"/>
       <use xlink:href="#DejaVuSans-35" x="95.410156"/>
      </g>
     </g>
    </g>
    <g id="ytick_20">
     <g id="line2d_92">
      <g>
       <use xlink:href="#mf79024ab14" x="534.914583" y="179.988268" style="stroke: #000000; stroke-width: 0.8"/>
      </g>
     </g>
     <g id="text_23">
      <!-- 0.6 -->
      <g transform="translate(512.011458 183.787486) scale(0.1 -0.1)">
       <use xlink:href="#DejaVuSans-30"/>
       <use xlink:href="#DejaVuSans-2e" x="63.623047"/>
       <use xlink:href="#DejaVuSans-36" x="95.410156"/>
      </g>
     </g>
    </g>
    <g id="ytick_21">
     <g id="line2d_93">
      <g>
       <use xlink:href="#mf79024ab14" x="534.914583" y="116.303877" style="stroke: #000000; stroke-width: 0.8"/>
      </g>
     </g>
     <g id="text_24">
      <!-- 0.7 -->
      <g transform="translate(512.011458 120.103095) scale(0.1 -0.1)">
       <use xlink:href="#DejaVuSans-30"/>
       <use xlink:href="#DejaVuSans-2e" x="63.623047"/>
       <use xlink:href="#DejaVuSans-37" x="95.410156"/>
      </g>
     </g>
    </g>
    <g id="ytick_22">
     <g id="line2d_94">
      <g>
       <use xlink:href="#mf79024ab14" x="534.914583" y="52.619485" style="stroke: #000000; stroke-width: 0.8"/>
      </g>
     </g>
     <g id="text_25">
      <!-- 0.8 -->
      <g transform="translate(512.011458 56.418704) scale(0.1 -0.1)">
       <use xlink:href="#DejaVuSans-30"/>
       <use xlink:href="#DejaVuSans-2e" x="63.623047"/>
       <use xlink:href="#DejaVuSans-38" x="95.410156"/>
      </g>
     </g>
    </g>
   </g>
   <g id="patch_27">
    <path d="M 538.446694 160.88295 
L 566.703583 160.88295 
L 566.703583 90.83012 
L 538.446694 90.83012 
L 538.446694 160.88295 
z
" clip-path="url(#pefe3e780b7)" style="fill: #548ca3"/>
   </g>
   <g id="line2d_95">
    <path d="M 552.575139 160.88295 
L 552.575139 211.830463 
" clip-path="url(#pefe3e780b7)" style="fill: none; stroke: #363636"/>
   </g>
   <g id="line2d_96">
    <path d="M 552.575139 90.83012 
L 552.575139 65.356364 
" clip-path="url(#pefe3e780b7)" style="fill: none; stroke: #363636"/>
   </g>
   <g id="line2d_97">
    <path d="M 545.510917 211.830463 
L 559.639361 211.830463 
" clip-path="url(#pefe3e780b7)" style="fill: none; stroke: #363636; stroke-linecap: square"/>
   </g>
   <g id="line2d_98">
    <path d="M 545.510917 65.356364 
L 559.639361 65.356364 
" clip-path="url(#pefe3e780b7)" style="fill: none; stroke: #363636; stroke-linecap: square"/>
   </g>
   <g id="line2d_99"/>
   <g id="patch_28">
    <path d="M 573.767806 160.88295 
L 602.024694 160.88295 
L 602.024694 97.198559 
L 573.767806 97.198559 
L 573.767806 160.88295 
z
" clip-path="url(#pefe3e780b7)" style="fill: #c96559"/>
   </g>
   <g id="line2d_100">
    <path d="M 587.89625 160.88295 
L 587.89625 218.198902 
" clip-path="url(#pefe3e780b7)" style="fill: none; stroke: #363636"/>
   </g>
   <g id="line2d_101">
    <path d="M 587.89625 97.198559 
L 587.89625 71.724803 
" clip-path="url(#pefe3e780b7)" style="fill: none; stroke: #363636"/>
   </g>
   <g id="line2d_102">
    <path d="M 580.832028 218.198902 
L 594.960472 218.198902 
" clip-path="url(#pefe3e780b7)" style="fill: none; stroke: #363636; stroke-linecap: square"/>
   </g>
   <g id="line2d_103">
    <path d="M 580.832028 71.724803 
L 594.960472 71.724803 
" clip-path="url(#pefe3e780b7)" style="fill: none; stroke: #363636; stroke-linecap: square"/>
   </g>
   <g id="line2d_104"/>
   <g id="patch_29">
    <path d="M 609.088917 167.251389 
L 637.345806 167.251389 
L 637.345806 97.198559 
L 609.088917 97.198559 
L 609.088917 167.251389 
z
" clip-path="url(#pefe3e780b7)" style="fill: #7e3b37"/>
   </g>
   <g id="line2d_105">
    <path d="M 623.217361 167.251389 
L 623.217361 218.198902 
" clip-path="url(#pefe3e780b7)" style="fill: none; stroke: #363636"/>
   </g>
   <g id="line2d_106">
    <path d="M 623.217361 97.198559 
L 623.217361 71.724803 
" clip-path="url(#pefe3e780b7)" style="fill: none; stroke: #363636"/>
   </g>
   <g id="line2d_107">
    <path d="M 616.153139 218.198902 
L 630.281583 218.198902 
" clip-path="url(#pefe3e780b7)" style="fill: none; stroke: #363636; stroke-linecap: square"/>
   </g>
   <g id="line2d_108">
    <path d="M 616.153139 71.724803 
L 630.281583 71.724803 
" clip-path="url(#pefe3e780b7)" style="fill: none; stroke: #363636; stroke-linecap: square"/>
   </g>
   <g id="line2d_109"/>
   <g id="patch_30">
    <path d="M 644.410028 160.88295 
L 672.666917 160.88295 
L 672.666917 97.198559 
L 644.410028 97.198559 
L 644.410028 160.88295 
z
" clip-path="url(#pefe3e780b7)" style="fill: #ebc07f"/>
   </g>
   <g id="line2d_110">
    <path d="M 658.538472 160.88295 
L 658.538472 218.198902 
" clip-path="url(#pefe3e780b7)" style="fill: none; stroke: #363636"/>
   </g>
   <g id="line2d_111">
    <path d="M 658.538472 97.198559 
L 658.538472 65.356364 
" clip-path="url(#pefe3e780b7)" style="fill: none; stroke: #363636"/>
   </g>
   <g id="line2d_112">
    <path d="M 651.47425 218.198902 
L 665.602694 218.198902 
" clip-path="url(#pefe3e780b7)" style="fill: none; stroke: #363636; stroke-linecap: square"/>
   </g>
   <g id="line2d_113">
    <path d="M 651.47425 65.356364 
L 665.602694 65.356364 
" clip-path="url(#pefe3e780b7)" style="fill: none; stroke: #363636; stroke-linecap: square"/>
   </g>
   <g id="line2d_114"/>
   <g id="patch_31">
    <path d="M 679.731139 326.462367 
L 707.988028 326.462367 
L 707.988028 288.251732 
L 679.731139 288.251732 
L 679.731139 326.462367 
z
" clip-path="url(#pefe3e780b7)" style="fill: #98657c"/>
   </g>
   <g id="line2d_115">
    <path d="M 693.859583 326.462367 
L 693.859583 371.041441 
" clip-path="url(#pefe3e780b7)" style="fill: none; stroke: #363636"/>
   </g>
   <g id="line2d_116">
    <path d="M 693.859583 288.251732 
L 693.859583 237.30422 
" clip-path="url(#pefe3e780b7)" style="fill: none; stroke: #363636"/>
   </g>
   <g id="line2d_117">
    <path d="M 686.795361 371.041441 
L 700.923806 371.041441 
" clip-path="url(#pefe3e780b7)" style="fill: none; stroke: #363636; stroke-linecap: square"/>
   </g>
   <g id="line2d_118">
    <path d="M 686.795361 237.30422 
L 700.923806 237.30422 
" clip-path="url(#pefe3e780b7)" style="fill: none; stroke: #363636; stroke-linecap: square"/>
   </g>
   <g id="line2d_119">
    <g clip-path="url(#pefe3e780b7)">
     <use xlink:href="#m6a6085b6d4" x="693.859583" y="205.462024" style="fill-opacity: 0; stroke: #363636"/>
    </g>
   </g>
   <g id="patch_32">
    <path d="M 715.05225 364.673002 
L 743.309139 364.673002 
L 743.309139 332.830806 
L 715.05225 332.830806 
L 715.05225 364.673002 
z
" clip-path="url(#pefe3e780b7)" style="fill: #66957e"/>
   </g>
   <g id="line2d_120">
    <path d="M 729.180694 364.673002 
L 729.180694 402.883636 
" clip-path="url(#pefe3e780b7)" style="fill: none; stroke: #363636"/>
   </g>
   <g id="line2d_121">
    <path d="M 729.180694 332.830806 
L 729.180694 300.988611 
" clip-path="url(#pefe3e780b7)" style="fill: none; stroke: #363636"/>
   </g>
   <g id="line2d_122">
    <path d="M 722.116472 402.883636 
L 736.244917 402.883636 
" clip-path="url(#pefe3e780b7)" style="fill: none; stroke: #363636; stroke-linecap: square"/>
   </g>
   <g id="line2d_123">
    <path d="M 722.116472 300.988611 
L 736.244917 300.988611 
" clip-path="url(#pefe3e780b7)" style="fill: none; stroke: #363636; stroke-linecap: square"/>
   </g>
   <g id="line2d_124">
    <g clip-path="url(#pefe3e780b7)">
     <use xlink:href="#m6a6085b6d4" x="729.180694" y="243.672659" style="fill-opacity: 0; stroke: #363636"/>
     <use xlink:href="#m6a6085b6d4" x="729.180694" y="275.514854" style="fill-opacity: 0; stroke: #363636"/>
    </g>
   </g>
   <g id="line2d_125">
    <path d="M 538.446694 109.935437 
L 566.703583 109.935437 
" clip-path="url(#pefe3e780b7)" style="fill: none; stroke: #363636"/>
   </g>
   <g id="line2d_126">
    <path d="M 573.767806 116.303877 
L 602.024694 116.303877 
" clip-path="url(#pefe3e780b7)" style="fill: none; stroke: #363636"/>
   </g>
   <g id="line2d_127">
    <path d="M 609.088917 116.303877 
L 637.345806 116.303877 
" clip-path="url(#pefe3e780b7)" style="fill: none; stroke: #363636"/>
   </g>
   <g id="line2d_128">
    <path d="M 644.410028 116.303877 
L 672.666917 116.303877 
" clip-path="url(#pefe3e780b7)" style="fill: none; stroke: #363636"/>
   </g>
   <g id="line2d_129">
    <path d="M 679.731139 307.35705 
L 707.988028 307.35705 
" clip-path="url(#pefe3e780b7)" style="fill: none; stroke: #363636"/>
   </g>
   <g id="line2d_130">
    <path d="M 715.05225 351.936123 
L 743.309139 351.936123 
" clip-path="url(#pefe3e780b7)" style="fill: none; stroke: #363636"/>
   </g>
   <g id="patch_33">
    <path d="M 534.914583 419.76 
L 534.914583 48.48 
" style="fill: none; stroke: #000000; stroke-width: 0.8; stroke-linejoin: miter; stroke-linecap: square"/>
   </g>
   <g id="patch_34">
    <path d="M 534.914583 419.76 
L 746.84125 419.76 
" style="fill: none; stroke: #000000; stroke-width: 0.8; stroke-linejoin: miter; stroke-linecap: square"/>
   </g>
   <g id="text_26">
    <!-- Inter-C5 -->
    <g transform="translate(620.984167 42.48) scale(0.1 -0.1)">
     <defs>
      <path id="DejaVuSans-43" d="M 4122 4306 
L 4122 3641 
Q 3803 3938 3442 4084 
Q 3081 4231 2675 4231 
Q 1875 4231 1450 3742 
Q 1025 3253 1025 2328 
Q 1025 1406 1450 917 
Q 1875 428 2675 428 
Q 3081 428 3442 575 
Q 3803 722 4122 1019 
L 4122 359 
Q 3791 134 3420 21 
Q 3050 -91 2638 -91 
Q 1578 -91 968 557 
Q 359 1206 359 2328 
Q 359 3453 968 4101 
Q 1578 4750 2638 4750 
Q 3056 4750 3426 4639 
Q 3797 4528 4122 4306 
z
" transform="scale(0.015625)"/>
     </defs>
     <use xlink:href="#DejaVuSans-49"/>
     <use xlink:href="#DejaVuSans-6e" x="29.492188"/>
     <use xlink:href="#DejaVuSans-74" x="92.871094"/>
     <use xlink:href="#DejaVuSans-65" x="132.080078"/>
     <use xlink:href="#DejaVuSans-72" x="193.603516"/>
     <use xlink:href="#DejaVuSans-2d" x="228.341797"/>
     <use xlink:href="#DejaVuSans-43" x="264.425781"/>
     <use xlink:href="#DejaVuSans-35" x="334.25"/>
    </g>
   </g>
  </g>
  <g id="text_27">
   <!-- Mapping Percentages by Reference Genome -->
   <g transform="translate(176.885 19.3575) scale(0.16 -0.16)">
    <defs>
     <path id="DejaVuSans-Bold-4d" d="M 588 4666 
L 2119 4666 
L 3181 2169 
L 4250 4666 
L 5778 4666 
L 5778 0 
L 4641 0 
L 4641 3413 
L 3566 897 
L 2803 897 
L 1728 3413 
L 1728 0 
L 588 0 
L 588 4666 
z
" transform="scale(0.015625)"/>
     <path id="DejaVuSans-Bold-61" d="M 2106 1575 
Q 1756 1575 1579 1456 
Q 1403 1338 1403 1106 
Q 1403 894 1545 773 
Q 1688 653 1941 653 
Q 2256 653 2472 879 
Q 2688 1106 2688 1447 
L 2688 1575 
L 2106 1575 
z
M 3816 1997 
L 3816 0 
L 2688 0 
L 2688 519 
Q 2463 200 2181 54 
Q 1900 -91 1497 -91 
Q 953 -91 614 226 
Q 275 544 275 1050 
Q 275 1666 698 1953 
Q 1122 2241 2028 2241 
L 2688 2241 
L 2688 2328 
Q 2688 2594 2478 2717 
Q 2269 2841 1825 2841 
Q 1466 2841 1156 2769 
Q 847 2697 581 2553 
L 581 3406 
Q 941 3494 1303 3539 
Q 1666 3584 2028 3584 
Q 2975 3584 3395 3211 
Q 3816 2838 3816 1997 
z
" transform="scale(0.015625)"/>
     <path id="DejaVuSans-Bold-70" d="M 1656 506 
L 1656 -1331 
L 538 -1331 
L 538 3500 
L 1656 3500 
L 1656 2988 
Q 1888 3294 2169 3439 
Q 2450 3584 2816 3584 
Q 3463 3584 3878 3070 
Q 4294 2556 4294 1747 
Q 4294 938 3878 423 
Q 3463 -91 2816 -91 
Q 2450 -91 2169 54 
Q 1888 200 1656 506 
z
M 2400 2772 
Q 2041 2772 1848 2508 
Q 1656 2244 1656 1747 
Q 1656 1250 1848 986 
Q 2041 722 2400 722 
Q 2759 722 2948 984 
Q 3138 1247 3138 1747 
Q 3138 2247 2948 2509 
Q 2759 2772 2400 2772 
z
" transform="scale(0.015625)"/>
     <path id="DejaVuSans-Bold-69" d="M 538 3500 
L 1656 3500 
L 1656 0 
L 538 0 
L 538 3500 
z
M 538 4863 
L 1656 4863 
L 1656 3950 
L 538 3950 
L 538 4863 
z
" transform="scale(0.015625)"/>
     <path id="DejaVuSans-Bold-6e" d="M 4056 2131 
L 4056 0 
L 2931 0 
L 2931 347 
L 2931 1631 
Q 2931 2084 2911 2256 
Q 2891 2428 2841 2509 
Q 2775 2619 2662 2680 
Q 2550 2741 2406 2741 
Q 2056 2741 1856 2470 
Q 1656 2200 1656 1722 
L 1656 0 
L 538 0 
L 538 3500 
L 1656 3500 
L 1656 2988 
Q 1909 3294 2193 3439 
Q 2478 3584 2822 3584 
Q 3428 3584 3742 3212 
Q 4056 2841 4056 2131 
z
" transform="scale(0.015625)"/>
     <path id="DejaVuSans-Bold-67" d="M 2919 594 
Q 2688 288 2409 144 
Q 2131 0 1766 0 
Q 1125 0 706 504 
Q 288 1009 288 1791 
Q 288 2575 706 3076 
Q 1125 3578 1766 3578 
Q 2131 3578 2409 3434 
Q 2688 3291 2919 2981 
L 2919 3500 
L 4044 3500 
L 4044 353 
Q 4044 -491 3511 -936 
Q 2978 -1381 1966 -1381 
Q 1638 -1381 1331 -1331 
Q 1025 -1281 716 -1178 
L 716 -306 
Q 1009 -475 1290 -558 
Q 1572 -641 1856 -641 
Q 2406 -641 2662 -400 
Q 2919 -159 2919 353 
L 2919 594 
z
M 2181 2772 
Q 1834 2772 1640 2515 
Q 1447 2259 1447 1791 
Q 1447 1309 1634 1061 
Q 1822 813 2181 813 
Q 2531 813 2725 1069 
Q 2919 1325 2919 1791 
Q 2919 2259 2725 2515 
Q 2531 2772 2181 2772 
z
" transform="scale(0.015625)"/>
     <path id="DejaVuSans-Bold-20" transform="scale(0.015625)"/>
     <path id="DejaVuSans-Bold-50" d="M 588 4666 
L 2584 4666 
Q 3475 4666 3951 4270 
Q 4428 3875 4428 3144 
Q 4428 2409 3951 2014 
Q 3475 1619 2584 1619 
L 1791 1619 
L 1791 0 
L 588 0 
L 588 4666 
z
M 1791 3794 
L 1791 2491 
L 2456 2491 
Q 2806 2491 2997 2661 
Q 3188 2831 3188 3144 
Q 3188 3456 2997 3625 
Q 2806 3794 2456 3794 
L 1791 3794 
z
" transform="scale(0.015625)"/>
     <path id="DejaVuSans-Bold-65" d="M 4031 1759 
L 4031 1441 
L 1416 1441 
Q 1456 1047 1700 850 
Q 1944 653 2381 653 
Q 2734 653 3104 758 
Q 3475 863 3866 1075 
L 3866 213 
Q 3469 63 3072 -14 
Q 2675 -91 2278 -91 
Q 1328 -91 801 392 
Q 275 875 275 1747 
Q 275 2603 792 3093 
Q 1309 3584 2216 3584 
Q 3041 3584 3536 3087 
Q 4031 2591 4031 1759 
z
M 2881 2131 
Q 2881 2450 2695 2645 
Q 2509 2841 2209 2841 
Q 1884 2841 1681 2658 
Q 1478 2475 1428 2131 
L 2881 2131 
z
" transform="scale(0.015625)"/>
     <path id="DejaVuSans-Bold-72" d="M 3138 2547 
Q 2991 2616 2845 2648 
Q 2700 2681 2553 2681 
Q 2122 2681 1889 2404 
Q 1656 2128 1656 1613 
L 1656 0 
L 538 0 
L 538 3500 
L 1656 3500 
L 1656 2925 
Q 1872 3269 2151 3426 
Q 2431 3584 2822 3584 
Q 2878 3584 2943 3579 
Q 3009 3575 3134 3559 
L 3138 2547 
z
" transform="scale(0.015625)"/>
     <path id="DejaVuSans-Bold-63" d="M 3366 3391 
L 3366 2478 
Q 3138 2634 2908 2709 
Q 2678 2784 2431 2784 
Q 1963 2784 1702 2511 
Q 1441 2238 1441 1747 
Q 1441 1256 1702 982 
Q 1963 709 2431 709 
Q 2694 709 2930 787 
Q 3166 866 3366 1019 
L 3366 103 
Q 3103 6 2833 -42 
Q 2563 -91 2291 -91 
Q 1344 -91 809 395 
Q 275 881 275 1747 
Q 275 2613 809 3098 
Q 1344 3584 2291 3584 
Q 2566 3584 2833 3536 
Q 3100 3488 3366 3391 
z
" transform="scale(0.015625)"/>
     <path id="DejaVuSans-Bold-74" d="M 1759 4494 
L 1759 3500 
L 2913 3500 
L 2913 2700 
L 1759 2700 
L 1759 1216 
Q 1759 972 1856 886 
Q 1953 800 2241 800 
L 2816 800 
L 2816 0 
L 1856 0 
Q 1194 0 917 276 
Q 641 553 641 1216 
L 641 2700 
L 84 2700 
L 84 3500 
L 641 3500 
L 641 4494 
L 1759 4494 
z
" transform="scale(0.015625)"/>
     <path id="DejaVuSans-Bold-73" d="M 3272 3391 
L 3272 2541 
Q 2913 2691 2578 2766 
Q 2244 2841 1947 2841 
Q 1628 2841 1473 2761 
Q 1319 2681 1319 2516 
Q 1319 2381 1436 2309 
Q 1553 2238 1856 2203 
L 2053 2175 
Q 2913 2066 3209 1816 
Q 3506 1566 3506 1031 
Q 3506 472 3093 190 
Q 2681 -91 1863 -91 
Q 1516 -91 1145 -36 
Q 775 19 384 128 
L 384 978 
Q 719 816 1070 734 
Q 1422 653 1784 653 
Q 2113 653 2278 743 
Q 2444 834 2444 1013 
Q 2444 1163 2330 1236 
Q 2216 1309 1875 1350 
L 1678 1375 
Q 931 1469 631 1722 
Q 331 1975 331 2491 
Q 331 3047 712 3315 
Q 1094 3584 1881 3584 
Q 2191 3584 2531 3537 
Q 2872 3491 3272 3391 
z
" transform="scale(0.015625)"/>
     <path id="DejaVuSans-Bold-62" d="M 2400 722 
Q 2759 722 2948 984 
Q 3138 1247 3138 1747 
Q 3138 2247 2948 2509 
Q 2759 2772 2400 2772 
Q 2041 2772 1848 2508 
Q 1656 2244 1656 1747 
Q 1656 1250 1848 986 
Q 2041 722 2400 722 
z
M 1656 2988 
Q 1888 3294 2169 3439 
Q 2450 3584 2816 3584 
Q 3463 3584 3878 3070 
Q 4294 2556 4294 1747 
Q 4294 938 3878 423 
Q 3463 -91 2816 -91 
Q 2450 -91 2169 54 
Q 1888 200 1656 506 
L 1656 0 
L 538 0 
L 538 4863 
L 1656 4863 
L 1656 2988 
z
" transform="scale(0.015625)"/>
     <path id="DejaVuSans-Bold-79" d="M 78 3500 
L 1197 3500 
L 2138 1125 
L 2938 3500 
L 4056 3500 
L 2584 -331 
Q 2363 -916 2067 -1148 
Q 1772 -1381 1288 -1381 
L 641 -1381 
L 641 -647 
L 991 -647 
Q 1275 -647 1404 -556 
Q 1534 -466 1606 -231 
L 1638 -134 
L 78 3500 
z
" transform="scale(0.015625)"/>
     <path id="DejaVuSans-Bold-52" d="M 2297 2597 
Q 2675 2597 2839 2737 
Q 3003 2878 3003 3200 
Q 3003 3519 2839 3656 
Q 2675 3794 2297 3794 
L 1791 3794 
L 1791 2597 
L 2297 2597 
z
M 1791 1766 
L 1791 0 
L 588 0 
L 588 4666 
L 2425 4666 
Q 3347 4666 3776 4356 
Q 4206 4047 4206 3378 
Q 4206 2916 3982 2619 
Q 3759 2322 3309 2181 
Q 3556 2125 3751 1926 
Q 3947 1728 4147 1325 
L 4800 0 
L 3519 0 
L 2950 1159 
Q 2778 1509 2601 1637 
Q 2425 1766 2131 1766 
L 1791 1766 
z
" transform="scale(0.015625)"/>
     <path id="DejaVuSans-Bold-66" d="M 2841 4863 
L 2841 4128 
L 2222 4128 
Q 1984 4128 1890 4042 
Q 1797 3956 1797 3744 
L 1797 3500 
L 2753 3500 
L 2753 2700 
L 1797 2700 
L 1797 0 
L 678 0 
L 678 2700 
L 122 2700 
L 122 3500 
L 678 3500 
L 678 3744 
Q 678 4316 997 4589 
Q 1316 4863 1984 4863 
L 2841 4863 
z
" transform="scale(0.015625)"/>
     <path id="DejaVuSans-Bold-47" d="M 4781 347 
Q 4331 128 3847 18 
Q 3363 -91 2847 -91 
Q 1681 -91 1000 561 
Q 319 1213 319 2328 
Q 319 3456 1012 4103 
Q 1706 4750 2913 4750 
Q 3378 4750 3804 4662 
Q 4231 4575 4609 4403 
L 4609 3438 
Q 4219 3659 3833 3768 
Q 3447 3878 3059 3878 
Q 2341 3878 1952 3476 
Q 1563 3075 1563 2328 
Q 1563 1588 1938 1184 
Q 2313 781 3003 781 
Q 3191 781 3352 804 
Q 3513 828 3641 878 
L 3641 1784 
L 2906 1784 
L 2906 2591 
L 4781 2591 
L 4781 347 
z
" transform="scale(0.015625)"/>
     <path id="DejaVuSans-Bold-6f" d="M 2203 2784 
Q 1831 2784 1636 2517 
Q 1441 2250 1441 1747 
Q 1441 1244 1636 976 
Q 1831 709 2203 709 
Q 2569 709 2762 976 
Q 2956 1244 2956 1747 
Q 2956 2250 2762 2517 
Q 2569 2784 2203 2784 
z
M 2203 3584 
Q 3106 3584 3614 3096 
Q 4122 2609 4122 1747 
Q 4122 884 3614 396 
Q 3106 -91 2203 -91 
Q 1297 -91 786 396 
Q 275 884 275 1747 
Q 275 2609 786 3096 
Q 1297 3584 2203 3584 
z
" transform="scale(0.015625)"/>
     <path id="DejaVuSans-Bold-6d" d="M 3781 2919 
Q 3994 3244 4286 3414 
Q 4578 3584 4928 3584 
Q 5531 3584 5847 3212 
Q 6163 2841 6163 2131 
L 6163 0 
L 5038 0 
L 5038 1825 
Q 5041 1866 5042 1909 
Q 5044 1953 5044 2034 
Q 5044 2406 4934 2573 
Q 4825 2741 4581 2741 
Q 4263 2741 4089 2478 
Q 3916 2216 3909 1719 
L 3909 0 
L 2784 0 
L 2784 1825 
Q 2784 2406 2684 2573 
Q 2584 2741 2328 2741 
Q 2006 2741 1831 2477 
Q 1656 2213 1656 1722 
L 1656 0 
L 531 0 
L 531 3500 
L 1656 3500 
L 1656 2988 
Q 1863 3284 2130 3434 
Q 2397 3584 2719 3584 
Q 3081 3584 3359 3409 
Q 3638 3234 3781 2919 
z
" transform="scale(0.015625)"/>
    </defs>
    <use xlink:href="#DejaVuSans-Bold-4d"/>
    <use xlink:href="#DejaVuSans-Bold-61" x="99.511719"/>
    <use xlink:href="#DejaVuSans-Bold-70" x="166.992188"/>
    <use xlink:href="#DejaVuSans-Bold-70" x="238.574219"/>
    <use xlink:href="#DejaVuSans-Bold-69" x="310.15625"/>
    <use xlink:href="#DejaVuSans-Bold-6e" x="344.433594"/>
    <use xlink:href="#DejaVuSans-Bold-67" x="415.625"/>
    <use xlink:href="#DejaVuSans-Bold-20" x="487.207031"/>
    <use xlink:href="#DejaVuSans-Bold-50" x="522.021484"/>
    <use xlink:href="#DejaVuSans-Bold-65" x="595.3125"/>
    <use xlink:href="#DejaVuSans-Bold-72" x="663.134766"/>
    <use xlink:href="#DejaVuSans-Bold-63" x="712.451172"/>
    <use xlink:href="#DejaVuSans-Bold-65" x="771.728516"/>
    <use xlink:href="#DejaVuSans-Bold-6e" x="839.550781"/>
    <use xlink:href="#DejaVuSans-Bold-74" x="910.742188"/>
    <use xlink:href="#DejaVuSans-Bold-61" x="958.544922"/>
    <use xlink:href="#DejaVuSans-Bold-67" x="1026.025391"/>
    <use xlink:href="#DejaVuSans-Bold-65" x="1097.607422"/>
    <use xlink:href="#DejaVuSans-Bold-73" x="1165.429688"/>
    <use xlink:href="#DejaVuSans-Bold-20" x="1224.951172"/>
    <use xlink:href="#DejaVuSans-Bold-62" x="1259.765625"/>
    <use xlink:href="#DejaVuSans-Bold-79" x="1331.347656"/>
    <use xlink:href="#DejaVuSans-Bold-20" x="1396.533203"/>
    <use xlink:href="#DejaVuSans-Bold-52" x="1431.347656"/>
    <use xlink:href="#DejaVuSans-Bold-65" x="1508.349609"/>
    <use xlink:href="#DejaVuSans-Bold-66" x="1576.171875"/>
    <use xlink:href="#DejaVuSans-Bold-65" x="1619.677734"/>
    <use xlink:href="#DejaVuSans-Bold-72" x="1687.5"/>
    <use xlink:href="#DejaVuSans-Bold-65" x="1736.816406"/>
    <use xlink:href="#DejaVuSans-Bold-6e" x="1804.638672"/>
    <use xlink:href="#DejaVuSans-Bold-63" x="1875.830078"/>
    <use xlink:href="#DejaVuSans-Bold-65" x="1935.107422"/>
    <use xlink:href="#DejaVuSans-Bold-20" x="2002.929688"/>
    <use xlink:href="#DejaVuSans-Bold-47" x="2037.744141"/>
    <use xlink:href="#DejaVuSans-Bold-65" x="2119.824219"/>
    <use xlink:href="#DejaVuSans-Bold-6e" x="2187.646484"/>
    <use xlink:href="#DejaVuSans-Bold-6f" x="2258.837891"/>
    <use xlink:href="#DejaVuSans-Bold-6d" x="2327.539062"/>
    <use xlink:href="#DejaVuSans-Bold-65" x="2431.738281"/>
   </g>
  </g>
  <g id="legend_1">
   <g id="text_28">
    <!-- Reference Genome -->
    <g transform="translate(328.959844 448.002187) scale(0.1 -0.1)">
     <defs>
      <path id="DejaVuSans-52" d="M 2841 2188 
Q 3044 2119 3236 1894 
Q 3428 1669 3622 1275 
L 4263 0 
L 3584 0 
L 2988 1197 
Q 2756 1666 2539 1819 
Q 2322 1972 1947 1972 
L 1259 1972 
L 1259 0 
L 628 0 
L 628 4666 
L 2053 4666 
Q 2853 4666 3247 4331 
Q 3641 3997 3641 3322 
Q 3641 2881 3436 2590 
Q 3231 2300 2841 2188 
z
M 1259 4147 
L 1259 2491 
L 2053 2491 
Q 2509 2491 2742 2702 
Q 2975 2913 2975 3322 
Q 2975 3731 2742 3939 
Q 2509 4147 2053 4147 
L 1259 4147 
z
" transform="scale(0.015625)"/>
      <path id="DejaVuSans-66" d="M 2375 4863 
L 2375 4384 
L 1825 4384 
Q 1516 4384 1395 4259 
Q 1275 4134 1275 3809 
L 1275 3500 
L 2222 3500 
L 2222 3053 
L 1275 3053 
L 1275 0 
L 697 0 
L 697 3053 
L 147 3053 
L 147 3500 
L 697 3500 
L 697 3744 
Q 697 4328 969 4595 
Q 1241 4863 1831 4863 
L 2375 4863 
z
" transform="scale(0.015625)"/>
      <path id="DejaVuSans-47" d="M 3809 666 
L 3809 1919 
L 2778 1919 
L 2778 2438 
L 4434 2438 
L 4434 434 
Q 4069 175 3628 42 
Q 3188 -91 2688 -91 
Q 1594 -91 976 548 
Q 359 1188 359 2328 
Q 359 3472 976 4111 
Q 1594 4750 2688 4750 
Q 3144 4750 3555 4637 
Q 3966 4525 4313 4306 
L 4313 3634 
Q 3963 3931 3569 4081 
Q 3175 4231 2741 4231 
Q 1884 4231 1454 3753 
Q 1025 3275 1025 2328 
Q 1025 1384 1454 906 
Q 1884 428 2741 428 
Q 3075 428 3337 486 
Q 3600 544 3809 666 
z
" transform="scale(0.015625)"/>
      <path id="DejaVuSans-6f" d="M 1959 3097 
Q 1497 3097 1228 2736 
Q 959 2375 959 1747 
Q 959 1119 1226 758 
Q 1494 397 1959 397 
Q 2419 397 2687 759 
Q 2956 1122 2956 1747 
Q 2956 2369 2687 2733 
Q 2419 3097 1959 3097 
z
M 1959 3584 
Q 2709 3584 3137 3096 
Q 3566 2609 3566 1747 
Q 3566 888 3137 398 
Q 2709 -91 1959 -91 
Q 1206 -91 779 398 
Q 353 888 353 1747 
Q 353 2609 779 3096 
Q 1206 3584 1959 3584 
z
" transform="scale(0.015625)"/>
      <path id="DejaVuSans-6d" d="M 3328 2828 
Q 3544 3216 3844 3400 
Q 4144 3584 4550 3584 
Q 5097 3584 5394 3201 
Q 5691 2819 5691 2113 
L 5691 0 
L 5113 0 
L 5113 2094 
Q 5113 2597 4934 2840 
Q 4756 3084 4391 3084 
Q 3944 3084 3684 2787 
Q 3425 2491 3425 1978 
L 3425 0 
L 2847 0 
L 2847 2094 
Q 2847 2600 2669 2842 
Q 2491 3084 2119 3084 
Q 1678 3084 1418 2786 
Q 1159 2488 1159 1978 
L 1159 0 
L 581 0 
L 581 3500 
L 1159 3500 
L 1159 2956 
Q 1356 3278 1631 3431 
Q 1906 3584 2284 3584 
Q 2666 3584 2933 3390 
Q 3200 3197 3328 2828 
z
" transform="scale(0.015625)"/>
     </defs>
     <use xlink:href="#DejaVuSans-52"/>
     <use xlink:href="#DejaVuSans-65" x="64.982422"/>
     <use xlink:href="#DejaVuSans-66" x="126.505859"/>
     <use xlink:href="#DejaVuSans-65" x="161.710938"/>
     <use xlink:href="#DejaVuSans-72" x="223.234375"/>
     <use xlink:href="#DejaVuSans-65" x="262.097656"/>
     <use xlink:href="#DejaVuSans-6e" x="323.621094"/>
     <use xlink:href="#DejaVuSans-63" x="387"/>
     <use xlink:href="#DejaVuSans-65" x="441.980469"/>
     <use xlink:href="#DejaVuSans-20" x="503.503906"/>
     <use xlink:href="#DejaVuSans-47" x="535.291016"/>
     <use xlink:href="#DejaVuSans-65" x="612.78125"/>
     <use xlink:href="#DejaVuSans-6e" x="674.304688"/>
     <use xlink:href="#DejaVuSans-6f" x="737.683594"/>
     <use xlink:href="#DejaVuSans-6d" x="798.865234"/>
     <use xlink:href="#DejaVuSans-65" x="896.277344"/>
    </g>
   </g>
   <g id="patch_35">
    <path d="M 70.827812 462.680313 
L 90.827812 462.680313 
L 90.827812 455.680313 
L 70.827812 455.680313 
z
" style="fill: #548ca3; stroke: #363636; stroke-linejoin: miter"/>
   </g>
   <g id="text_29">
    <!-- P. inflata -->
    <g transform="translate(98.827812 462.680313) scale(0.1 -0.1)">
     <defs>
      <path id="DejaVuSans-Oblique-50" d="M 1081 4666 
L 2541 4666 
Q 3178 4666 3512 4369 
Q 3847 4072 3847 3500 
Q 3847 2731 3353 2303 
Q 2859 1875 1966 1875 
L 1172 1875 
L 806 0 
L 172 0 
L 1081 4666 
z
M 1613 4147 
L 1275 2394 
L 2069 2394 
Q 2606 2394 2893 2669 
Q 3181 2944 3181 3456 
Q 3181 3784 2986 3965 
Q 2791 4147 2438 4147 
L 1613 4147 
z
" transform="scale(0.015625)"/>
      <path id="DejaVuSans-Oblique-2e" d="M 525 794 
L 1184 794 
L 1031 0 
L 372 0 
L 525 794 
z
" transform="scale(0.015625)"/>
      <path id="DejaVuSans-Oblique-20" transform="scale(0.015625)"/>
      <path id="DejaVuSans-Oblique-69" d="M 1172 4863 
L 1747 4863 
L 1606 4134 
L 1031 4134 
L 1172 4863 
z
M 909 3500 
L 1484 3500 
L 800 0 
L 225 0 
L 909 3500 
z
" transform="scale(0.015625)"/>
      <path id="DejaVuSans-Oblique-6e" d="M 3566 2113 
L 3156 0 
L 2578 0 
L 2988 2091 
Q 3016 2238 3031 2350 
Q 3047 2463 3047 2528 
Q 3047 2791 2881 2937 
Q 2716 3084 2419 3084 
Q 1956 3084 1622 2776 
Q 1288 2469 1184 1941 
L 800 0 
L 225 0 
L 903 3500 
L 1478 3500 
L 1363 2950 
Q 1603 3253 1940 3418 
Q 2278 3584 2650 3584 
Q 3113 3584 3367 3334 
Q 3622 3084 3622 2631 
Q 3622 2519 3608 2391 
Q 3594 2263 3566 2113 
z
" transform="scale(0.015625)"/>
      <path id="DejaVuSans-Oblique-66" d="M 3059 4863 
L 2969 4384 
L 2419 4384 
Q 2106 4384 1964 4261 
Q 1822 4138 1753 3809 
L 1691 3500 
L 2638 3500 
L 2553 3053 
L 1606 3053 
L 1013 0 
L 434 0 
L 1031 3053 
L 481 3053 
L 563 3500 
L 1113 3500 
L 1159 3744 
Q 1278 4363 1576 4613 
Q 1875 4863 2516 4863 
L 3059 4863 
z
" transform="scale(0.015625)"/>
      <path id="DejaVuSans-Oblique-6c" d="M 1172 4863 
L 1747 4863 
L 800 0 
L 225 0 
L 1172 4863 
z
" transform="scale(0.015625)"/>
      <path id="DejaVuSans-Oblique-61" d="M 3438 1997 
L 3047 0 
L 2472 0 
L 2578 531 
Q 2325 219 2001 64 
Q 1678 -91 1281 -91 
Q 834 -91 548 182 
Q 263 456 263 884 
Q 263 1497 752 1853 
Q 1241 2209 2100 2209 
L 2900 2209 
L 2931 2363 
Q 2938 2388 2941 2417 
Q 2944 2447 2944 2509 
Q 2944 2788 2717 2942 
Q 2491 3097 2081 3097 
Q 1800 3097 1504 3025 
Q 1209 2953 897 2809 
L 997 3341 
Q 1322 3463 1633 3523 
Q 1944 3584 2234 3584 
Q 2853 3584 3176 3315 
Q 3500 3047 3500 2534 
Q 3500 2431 3484 2292 
Q 3469 2153 3438 1997 
z
M 2816 1759 
L 2241 1759 
Q 1534 1759 1195 1570 
Q 856 1381 856 984 
Q 856 709 1029 553 
Q 1203 397 1509 397 
Q 1978 397 2328 733 
Q 2678 1069 2791 1631 
L 2816 1759 
z
" transform="scale(0.015625)"/>
      <path id="DejaVuSans-Oblique-74" d="M 2706 3500 
L 2619 3053 
L 1472 3053 
L 1100 1153 
Q 1081 1047 1072 975 
Q 1063 903 1063 863 
Q 1063 663 1183 572 
Q 1303 481 1569 481 
L 2150 481 
L 2053 0 
L 1503 0 
Q 991 0 739 200 
Q 488 400 488 806 
Q 488 878 497 964 
Q 506 1050 525 1153 
L 897 3053 
L 409 3053 
L 500 3500 
L 978 3500 
L 1172 4494 
L 1747 4494 
L 1556 3500 
L 2706 3500 
z
" transform="scale(0.015625)"/>
     </defs>
     <use xlink:href="#DejaVuSans-Oblique-50"/>
     <use xlink:href="#DejaVuSans-Oblique-2e" x="46.552734"/>
     <use xlink:href="#DejaVuSans-Oblique-20" x="78.339844"/>
     <use xlink:href="#DejaVuSans-Oblique-69" x="110.126953"/>
     <use xlink:href="#DejaVuSans-Oblique-6e" x="137.910156"/>
     <use xlink:href="#DejaVuSans-Oblique-66" x="201.289062"/>
     <use xlink:href="#DejaVuSans-Oblique-6c" x="236.494141"/>
     <use xlink:href="#DejaVuSans-Oblique-61" x="264.277344"/>
     <use xlink:href="#DejaVuSans-Oblique-74" x="325.556641"/>
     <use xlink:href="#DejaVuSans-Oblique-61" x="364.765625"/>
    </g>
   </g>
   <g id="patch_36">
    <path d="M 161.429375 462.680313 
L 181.429375 462.680313 
L 181.429375 455.680313 
L 161.429375 455.680313 
z
" style="fill: #c96559; stroke: #363636; stroke-linejoin: miter"/>
   </g>
   <g id="text_30">
    <!-- P. axillaris I -->
    <g transform="translate(189.429375 462.680313) scale(0.1 -0.1)">
     <defs>
      <path id="DejaVuSans-Oblique-78" d="M 3841 3500 
L 2234 1784 
L 3219 0 
L 2559 0 
L 1819 1388 
L 531 0 
L -166 0 
L 1556 1844 
L 641 3500 
L 1300 3500 
L 1972 2234 
L 3144 3500 
L 3841 3500 
z
" transform="scale(0.015625)"/>
      <path id="DejaVuSans-Oblique-72" d="M 2853 2969 
Q 2766 3016 2653 3041 
Q 2541 3066 2413 3066 
Q 1953 3066 1609 2717 
Q 1266 2369 1153 1784 
L 800 0 
L 225 0 
L 909 3500 
L 1484 3500 
L 1375 2956 
Q 1603 3259 1920 3421 
Q 2238 3584 2597 3584 
Q 2691 3584 2781 3573 
Q 2872 3563 2963 3538 
L 2853 2969 
z
" transform="scale(0.015625)"/>
      <path id="DejaVuSans-Oblique-73" d="M 3200 3397 
L 3091 2853 
Q 2863 2978 2609 3040 
Q 2356 3103 2088 3103 
Q 1634 3103 1373 2948 
Q 1113 2794 1113 2528 
Q 1113 2219 1719 2053 
Q 1766 2041 1788 2034 
L 1972 1978 
Q 2547 1819 2739 1644 
Q 2931 1469 2931 1166 
Q 2931 609 2489 259 
Q 2047 -91 1331 -91 
Q 1053 -91 747 -37 
Q 441 16 72 128 
L 184 722 
Q 500 559 806 475 
Q 1113 391 1394 391 
Q 1816 391 2080 572 
Q 2344 753 2344 1031 
Q 2344 1331 1650 1516 
L 1591 1531 
L 1394 1581 
Q 956 1697 753 1886 
Q 550 2075 550 2369 
Q 550 2928 970 3256 
Q 1391 3584 2113 3584 
Q 2397 3584 2667 3537 
Q 2938 3491 3200 3397 
z
" transform="scale(0.015625)"/>
      <path id="DejaVuSans-Oblique-49" d="M 1081 4666 
L 1716 4666 
L 806 0 
L 172 0 
L 1081 4666 
z
" transform="scale(0.015625)"/>
     </defs>
     <use xlink:href="#DejaVuSans-Oblique-50"/>
     <use xlink:href="#DejaVuSans-Oblique-2e" x="46.552734"/>
     <use xlink:href="#DejaVuSans-Oblique-20" x="78.339844"/>
     <use xlink:href="#DejaVuSans-Oblique-61" x="110.126953"/>
     <use xlink:href="#DejaVuSans-Oblique-78" x="171.40625"/>
     <use xlink:href="#DejaVuSans-Oblique-69" x="230.585938"/>
     <use xlink:href="#DejaVuSans-Oblique-6c" x="258.369141"/>
     <use xlink:href="#DejaVuSans-Oblique-6c" x="286.152344"/>
     <use xlink:href="#DejaVuSans-Oblique-61" x="313.935547"/>
     <use xlink:href="#DejaVuSans-Oblique-72" x="375.214844"/>
     <use xlink:href="#DejaVuSans-Oblique-69" x="416.328125"/>
     <use xlink:href="#DejaVuSans-Oblique-73" x="444.111328"/>
     <use xlink:href="#DejaVuSans-Oblique-20" x="496.210938"/>
     <use xlink:href="#DejaVuSans-Oblique-49" x="527.998047"/>
    </g>
   </g>
   <g id="patch_37">
    <path d="M 265.17625 462.680313 
L 285.17625 462.680313 
L 285.17625 455.680313 
L 265.17625 455.680313 
z
" style="fill: #7e3b37; stroke: #363636; stroke-linejoin: miter"/>
   </g>
   <g id="text_31">
    <!-- P. axillaris II -->
    <g transform="translate(293.17625 462.680313) scale(0.1 -0.1)">
     <use xlink:href="#DejaVuSans-Oblique-50"/>
     <use xlink:href="#DejaVuSans-Oblique-2e" x="46.552734"/>
     <use xlink:href="#DejaVuSans-Oblique-20" x="78.339844"/>
     <use xlink:href="#DejaVuSans-Oblique-61" x="110.126953"/>
     <use xlink:href="#DejaVuSans-Oblique-78" x="171.40625"/>
     <use xlink:href="#DejaVuSans-Oblique-69" x="230.585938"/>
     <use xlink:href="#DejaVuSans-Oblique-6c" x="258.369141"/>
     <use xlink:href="#DejaVuSans-Oblique-6c" x="286.152344"/>
     <use xlink:href="#DejaVuSans-Oblique-61" x="313.935547"/>
     <use xlink:href="#DejaVuSans-Oblique-72" x="375.214844"/>
     <use xlink:href="#DejaVuSans-Oblique-69" x="416.328125"/>
     <use xlink:href="#DejaVuSans-Oblique-73" x="444.111328"/>
     <use xlink:href="#DejaVuSans-Oblique-20" x="496.210938"/>
     <use xlink:href="#DejaVuSans-Oblique-49" x="527.998047"/>
     <use xlink:href="#DejaVuSans-Oblique-49" x="557.490234"/>
    </g>
   </g>
   <g id="patch_38">
    <path d="M 371.873125 462.680313 
L 391.873125 462.680313 
L 391.873125 455.680313 
L 371.873125 455.680313 
z
" style="fill: #ebc07f; stroke: #363636; stroke-linejoin: miter"/>
   </g>
   <g id="text_32">
    <!-- P. secreta -->
    <g transform="translate(399.873125 462.680313) scale(0.1 -0.1)">
     <defs>
      <path id="DejaVuSans-Oblique-65" d="M 3078 2063 
Q 3088 2113 3092 2166 
Q 3097 2219 3097 2272 
Q 3097 2653 2873 2875 
Q 2650 3097 2266 3097 
Q 1838 3097 1509 2826 
Q 1181 2556 1013 2059 
L 3078 2063 
z
M 3578 1613 
L 903 1613 
Q 884 1494 878 1425 
Q 872 1356 872 1306 
Q 872 872 1139 634 
Q 1406 397 1894 397 
Q 2269 397 2603 481 
Q 2938 566 3225 728 
L 3116 159 
Q 2806 34 2476 -28 
Q 2147 -91 1806 -91 
Q 1078 -91 686 257 
Q 294 606 294 1247 
Q 294 1794 489 2264 
Q 684 2734 1063 3103 
Q 1306 3334 1642 3459 
Q 1978 3584 2356 3584 
Q 2950 3584 3301 3228 
Q 3653 2872 3653 2272 
Q 3653 2128 3634 1964 
Q 3616 1800 3578 1613 
z
" transform="scale(0.015625)"/>
      <path id="DejaVuSans-Oblique-63" d="M 3431 3366 
L 3316 2797 
Q 3109 2947 2876 3022 
Q 2644 3097 2394 3097 
Q 2119 3097 1870 3000 
Q 1622 2903 1453 2725 
Q 1184 2453 1037 2087 
Q 891 1722 891 1331 
Q 891 859 1127 628 
Q 1363 397 1844 397 
Q 2081 397 2348 469 
Q 2616 541 2906 684 
L 2797 116 
Q 2547 13 2283 -39 
Q 2019 -91 1741 -91 
Q 1044 -91 669 257 
Q 294 606 294 1253 
Q 294 1797 489 2255 
Q 684 2713 1069 3078 
Q 1331 3328 1684 3456 
Q 2038 3584 2456 3584 
Q 2700 3584 2940 3529 
Q 3181 3475 3431 3366 
z
" transform="scale(0.015625)"/>
     </defs>
     <use xlink:href="#DejaVuSans-Oblique-50"/>
     <use xlink:href="#DejaVuSans-Oblique-2e" x="46.552734"/>
     <use xlink:href="#DejaVuSans-Oblique-20" x="78.339844"/>
     <use xlink:href="#DejaVuSans-Oblique-73" x="110.126953"/>
     <use xlink:href="#DejaVuSans-Oblique-65" x="162.226562"/>
     <use xlink:href="#DejaVuSans-Oblique-63" x="223.75"/>
     <use xlink:href="#DejaVuSans-Oblique-72" x="278.730469"/>
     <use xlink:href="#DejaVuSans-Oblique-65" x="319.84375"/>
     <use xlink:href="#DejaVuSans-Oblique-74" x="381.367188"/>
     <use xlink:href="#DejaVuSans-Oblique-61" x="420.576172"/>
    </g>
   </g>
   <g id="patch_39">
    <path d="M 468.0575 462.680313 
L 488.0575 462.680313 
L 488.0575 455.680313 
L 468.0575 455.680313 
z
" style="fill: #98657c; stroke: #363636; stroke-linejoin: miter"/>
   </g>
   <g id="text_33">
    <!-- N. sylvestris -->
    <g transform="translate(496.0575 462.680313) scale(0.1 -0.1)">
     <defs>
      <path id="DejaVuSans-Oblique-4e" d="M 1081 4666 
L 1931 4666 
L 3219 666 
L 4000 4666 
L 4616 4666 
L 3706 0 
L 2853 0 
L 1569 4025 
L 788 0 
L 172 0 
L 1081 4666 
z
" transform="scale(0.015625)"/>
      <path id="DejaVuSans-Oblique-79" d="M 1588 -325 
Q 1188 -997 936 -1164 
Q 684 -1331 294 -1331 
L -159 -1331 
L -63 -850 
L 269 -850 
Q 509 -850 678 -719 
Q 847 -588 1056 -206 
L 1234 128 
L 459 3500 
L 1069 3500 
L 1650 819 
L 3256 3500 
L 3859 3500 
L 1588 -325 
z
" transform="scale(0.015625)"/>
      <path id="DejaVuSans-Oblique-76" d="M 459 3500 
L 1069 3500 
L 1581 525 
L 3256 3500 
L 3866 3500 
L 1875 0 
L 1100 0 
L 459 3500 
z
" transform="scale(0.015625)"/>
     </defs>
     <use xlink:href="#DejaVuSans-Oblique-4e"/>
     <use xlink:href="#DejaVuSans-Oblique-2e" x="74.804688"/>
     <use xlink:href="#DejaVuSans-Oblique-20" x="106.591797"/>
     <use xlink:href="#DejaVuSans-Oblique-73" x="138.378906"/>
     <use xlink:href="#DejaVuSans-Oblique-79" x="190.478516"/>
     <use xlink:href="#DejaVuSans-Oblique-6c" x="249.658203"/>
     <use xlink:href="#DejaVuSans-Oblique-76" x="277.441406"/>
     <use xlink:href="#DejaVuSans-Oblique-65" x="336.621094"/>
     <use xlink:href="#DejaVuSans-Oblique-73" x="398.144531"/>
     <use xlink:href="#DejaVuSans-Oblique-74" x="450.244141"/>
     <use xlink:href="#DejaVuSans-Oblique-72" x="489.453125"/>
     <use xlink:href="#DejaVuSans-Oblique-69" x="530.566406"/>
     <use xlink:href="#DejaVuSans-Oblique-73" x="558.349609"/>
    </g>
   </g>
   <g id="patch_40">
    <path d="M 577.10125 462.680313 
L 597.10125 462.680313 
L 597.10125 455.680313 
L 577.10125 455.680313 
z
" style="fill: #66957e; stroke: #363636; stroke-linejoin: miter"/>
   </g>
   <g id="text_34">
    <!-- S. habrochaites -->
    <g transform="translate(605.10125 462.680313) scale(0.1 -0.1)">
     <defs>
      <path id="DejaVuSans-Oblique-53" d="M 3859 4513 
L 3738 3897 
Q 3422 4066 3111 4152 
Q 2800 4238 2509 4238 
Q 1944 4238 1609 3991 
Q 1275 3744 1275 3334 
Q 1275 3109 1398 2989 
Q 1522 2869 2034 2731 
L 2413 2638 
Q 3053 2472 3303 2217 
Q 3553 1963 3553 1503 
Q 3553 797 2998 353 
Q 2444 -91 1538 -91 
Q 1166 -91 791 -17 
Q 416 56 38 206 
L 166 856 
Q 513 641 861 531 
Q 1209 422 1556 422 
Q 2147 422 2503 684 
Q 2859 947 2859 1369 
Q 2859 1650 2717 1795 
Q 2575 1941 2106 2059 
L 1728 2156 
Q 1081 2325 845 2545 
Q 609 2766 609 3163 
Q 609 3859 1145 4304 
Q 1681 4750 2541 4750 
Q 2875 4750 3203 4690 
Q 3531 4631 3859 4513 
z
" transform="scale(0.015625)"/>
      <path id="DejaVuSans-Oblique-68" d="M 3566 2113 
L 3156 0 
L 2578 0 
L 2988 2091 
Q 3016 2238 3031 2350 
Q 3047 2463 3047 2528 
Q 3047 2791 2881 2937 
Q 2716 3084 2419 3084 
Q 1956 3084 1617 2771 
Q 1278 2459 1178 1941 
L 800 0 
L 225 0 
L 1172 4863 
L 1747 4863 
L 1375 2950 
Q 1594 3244 1934 3414 
Q 2275 3584 2650 3584 
Q 3113 3584 3367 3334 
Q 3622 3084 3622 2631 
Q 3622 2519 3608 2391 
Q 3594 2263 3566 2113 
z
" transform="scale(0.015625)"/>
      <path id="DejaVuSans-Oblique-62" d="M 3169 2138 
Q 3169 2591 2961 2847 
Q 2753 3103 2388 3103 
Q 2122 3103 1889 2973 
Q 1656 2844 1484 2597 
Q 1303 2338 1198 1995 
Q 1094 1653 1094 1313 
Q 1094 881 1298 636 
Q 1503 391 1863 391 
Q 2134 391 2365 517 
Q 2597 644 2772 891 
Q 2950 1147 3059 1487 
Q 3169 1828 3169 2138 
z
M 1381 2969 
Q 1594 3256 1914 3420 
Q 2234 3584 2584 3584 
Q 3122 3584 3439 3221 
Q 3756 2859 3756 2241 
Q 3756 1734 3570 1259 
Q 3384 784 3041 416 
Q 2816 172 2522 40 
Q 2228 -91 1906 -91 
Q 1566 -91 1316 65 
Q 1066 222 909 531 
L 806 0 
L 231 0 
L 1178 4863 
L 1753 4863 
L 1381 2969 
z
" transform="scale(0.015625)"/>
      <path id="DejaVuSans-Oblique-6f" d="M 1625 -91 
Q 1009 -91 651 289 
Q 294 669 294 1325 
Q 294 1706 417 2101 
Q 541 2497 738 2766 
Q 1047 3184 1428 3384 
Q 1809 3584 2291 3584 
Q 2888 3584 3255 3212 
Q 3622 2841 3622 2241 
Q 3622 1825 3500 1412 
Q 3378 1000 3181 728 
Q 2875 309 2494 109 
Q 2113 -91 1625 -91 
z
M 891 1344 
Q 891 869 1089 633 
Q 1288 397 1691 397 
Q 2269 397 2648 901 
Q 3028 1406 3028 2181 
Q 3028 2634 2825 2865 
Q 2622 3097 2228 3097 
Q 1903 3097 1650 2945 
Q 1397 2794 1197 2484 
Q 1050 2253 970 1956 
Q 891 1659 891 1344 
z
" transform="scale(0.015625)"/>
     </defs>
     <use xlink:href="#DejaVuSans-Oblique-53"/>
     <use xlink:href="#DejaVuSans-Oblique-2e" x="63.476562"/>
     <use xlink:href="#DejaVuSans-Oblique-20" x="95.263672"/>
     <use xlink:href="#DejaVuSans-Oblique-68" x="127.050781"/>
     <use xlink:href="#DejaVuSans-Oblique-61" x="190.429688"/>
     <use xlink:href="#DejaVuSans-Oblique-62" x="251.708984"/>
     <use xlink:href="#DejaVuSans-Oblique-72" x="315.185547"/>
     <use xlink:href="#DejaVuSans-Oblique-6f" x="356.298828"/>
     <use xlink:href="#DejaVuSans-Oblique-63" x="417.480469"/>
     <use xlink:href="#DejaVuSans-Oblique-68" x="472.460938"/>
     <use xlink:href="#DejaVuSans-Oblique-61" x="535.839844"/>
     <use xlink:href="#DejaVuSans-Oblique-69" x="597.119141"/>
     <use xlink:href="#DejaVuSans-Oblique-74" x="624.902344"/>
     <use xlink:href="#DejaVuSans-Oblique-65" x="664.111328"/>
     <use xlink:href="#DejaVuSans-Oblique-73" x="725.634766"/>
    </g>
   </g>
  </g>
 </g>
 <defs>
  <clipPath id="p257d8c3c26">
   <rect x="43.78125" y="48.48" width="211.926667" height="371.28"/>
  </clipPath>
  <clipPath id="pd06d5145ef">
   <rect x="289.347917" y="48.48" width="211.926667" height="371.28"/>
  </clipPath>
  <clipPath id="pefe3e780b7">
   <rect x="534.914583" y="48.48" width="211.926667" height="371.28"/>
  </clipPath>
 </defs>
</svg>
